<mxfile host="app.diagrams.net" modified="2022-03-27T11:10:48.923Z" agent="5.0 (Macintosh; Intel Mac OS X 10_15_7) AppleWebKit/537.36 (KHTML, like Gecko) Chrome/99.0.4844.83 Safari/537.36" etag="UUQab2GnrlMLU-OV-qAC" version="17.2.1" type="github">
  <diagram id="C5RBs43oDa-KdzZeNtuy" name="Page-1">
    <mxGraphModel dx="1273" dy="810" grid="1" gridSize="10" guides="1" tooltips="1" connect="1" arrows="1" fold="1" page="1" pageScale="1" pageWidth="827" pageHeight="1169" math="0" shadow="0">
      <root>
        <mxCell id="WIyWlLk6GJQsqaUBKTNV-0" />
        <mxCell id="WIyWlLk6GJQsqaUBKTNV-1" parent="WIyWlLk6GJQsqaUBKTNV-0" />
        <mxCell id="cavRAeg5umnz87ZM6FMu-50" style="edgeStyle=orthogonalEdgeStyle;rounded=0;orthogonalLoop=1;jettySize=auto;html=1;exitX=0.5;exitY=1;exitDx=0;exitDy=0;entryX=0.5;entryY=0;entryDx=0;entryDy=0;" edge="1" parent="WIyWlLk6GJQsqaUBKTNV-1" source="WIyWlLk6GJQsqaUBKTNV-3" target="WIyWlLk6GJQsqaUBKTNV-6">
          <mxGeometry relative="1" as="geometry" />
        </mxCell>
        <mxCell id="WIyWlLk6GJQsqaUBKTNV-3" value="&lt;pre style=&quot;background-color: rgb(43 , 43 , 43) ; color: rgb(169 , 183 , 198) ; font-family: , monospace ; font-size: 9.8pt&quot;&gt;&lt;pre style=&quot;font-family: , monospace ; font-size: 9.8pt&quot;&gt;&lt;span style=&quot;color: #629755 ; font-style: italic&quot;&gt;分享链接直接获得优惠券（&lt;/span&gt;分享方送优惠券第一阶段）&lt;/pre&gt;&lt;/pre&gt;" style="rounded=1;whiteSpace=wrap;html=1;fontSize=12;glass=0;strokeWidth=1;shadow=0;spacing=6;spacingTop=-4;" parent="WIyWlLk6GJQsqaUBKTNV-1" vertex="1">
          <mxGeometry x="290" y="100" width="120" height="40" as="geometry" />
        </mxCell>
        <mxCell id="IeeZ9lZqZlFsDjQg3cIJ-2" style="edgeStyle=orthogonalEdgeStyle;rounded=0;orthogonalLoop=1;jettySize=auto;html=1;exitX=0.5;exitY=1;exitDx=0;exitDy=0;entryX=0.5;entryY=0;entryDx=0;entryDy=0;fontFamily=Helvetica;fontSize=12;fontColor=default;" parent="WIyWlLk6GJQsqaUBKTNV-1" source="WIyWlLk6GJQsqaUBKTNV-6" target="IeeZ9lZqZlFsDjQg3cIJ-1" edge="1">
          <mxGeometry relative="1" as="geometry" />
        </mxCell>
        <mxCell id="cavRAeg5umnz87ZM6FMu-52" value="是" style="edgeLabel;html=1;align=center;verticalAlign=middle;resizable=0;points=[];" vertex="1" connectable="0" parent="IeeZ9lZqZlFsDjQg3cIJ-2">
          <mxGeometry x="-0.32" relative="1" as="geometry">
            <mxPoint as="offset" />
          </mxGeometry>
        </mxCell>
        <mxCell id="cavRAeg5umnz87ZM6FMu-49" style="edgeStyle=orthogonalEdgeStyle;rounded=0;orthogonalLoop=1;jettySize=auto;html=1;exitX=1;exitY=0.5;exitDx=0;exitDy=0;entryX=0;entryY=0.5;entryDx=0;entryDy=0;" edge="1" parent="WIyWlLk6GJQsqaUBKTNV-1" source="WIyWlLk6GJQsqaUBKTNV-6" target="WIyWlLk6GJQsqaUBKTNV-7">
          <mxGeometry relative="1" as="geometry" />
        </mxCell>
        <mxCell id="cavRAeg5umnz87ZM6FMu-51" value="否" style="edgeLabel;html=1;align=center;verticalAlign=middle;resizable=0;points=[];" vertex="1" connectable="0" parent="cavRAeg5umnz87ZM6FMu-49">
          <mxGeometry x="-0.08" relative="1" as="geometry">
            <mxPoint as="offset" />
          </mxGeometry>
        </mxCell>
        <mxCell id="WIyWlLk6GJQsqaUBKTNV-6" value="分享活动链接是否存在" style="rhombus;whiteSpace=wrap;html=1;shadow=0;fontFamily=Helvetica;fontSize=12;align=center;strokeWidth=1;spacing=6;spacingTop=-4;" parent="WIyWlLk6GJQsqaUBKTNV-1" vertex="1">
          <mxGeometry x="300" y="190" width="100" height="80" as="geometry" />
        </mxCell>
        <mxCell id="WIyWlLk6GJQsqaUBKTNV-7" value="结束" style="rounded=1;whiteSpace=wrap;html=1;fontSize=12;glass=0;strokeWidth=1;shadow=0;" parent="WIyWlLk6GJQsqaUBKTNV-1" vertex="1">
          <mxGeometry x="484" y="210" width="120" height="40" as="geometry" />
        </mxCell>
        <mxCell id="WIyWlLk6GJQsqaUBKTNV-8" value="是" style="rounded=0;html=1;jettySize=auto;orthogonalLoop=1;fontSize=11;endArrow=block;endFill=0;endSize=8;strokeWidth=1;shadow=0;labelBackgroundColor=none;edgeStyle=orthogonalEdgeStyle;" parent="WIyWlLk6GJQsqaUBKTNV-1" source="WIyWlLk6GJQsqaUBKTNV-10" target="WIyWlLk6GJQsqaUBKTNV-11" edge="1">
          <mxGeometry x="-0.3333" y="20" relative="1" as="geometry">
            <mxPoint as="offset" />
          </mxGeometry>
        </mxCell>
        <mxCell id="WIyWlLk6GJQsqaUBKTNV-9" value="否" style="edgeStyle=orthogonalEdgeStyle;rounded=0;html=1;jettySize=auto;orthogonalLoop=1;fontSize=11;endArrow=block;endFill=0;endSize=8;strokeWidth=1;shadow=0;labelBackgroundColor=none;" parent="WIyWlLk6GJQsqaUBKTNV-1" source="WIyWlLk6GJQsqaUBKTNV-10" target="WIyWlLk6GJQsqaUBKTNV-12" edge="1">
          <mxGeometry y="10" relative="1" as="geometry">
            <mxPoint as="offset" />
          </mxGeometry>
        </mxCell>
        <mxCell id="WIyWlLk6GJQsqaUBKTNV-10" value="活动类型是否是分享送活动" style="rhombus;whiteSpace=wrap;html=1;shadow=0;fontFamily=Helvetica;fontSize=12;align=center;strokeWidth=1;spacing=6;spacingTop=-4;" parent="WIyWlLk6GJQsqaUBKTNV-1" vertex="1">
          <mxGeometry x="300" y="440" width="100" height="80" as="geometry" />
        </mxCell>
        <mxCell id="IeeZ9lZqZlFsDjQg3cIJ-5" style="edgeStyle=orthogonalEdgeStyle;rounded=0;orthogonalLoop=1;jettySize=auto;html=1;exitX=0.5;exitY=1;exitDx=0;exitDy=0;fontFamily=Helvetica;fontSize=12;fontColor=default;" parent="WIyWlLk6GJQsqaUBKTNV-1" source="WIyWlLk6GJQsqaUBKTNV-11" target="IeeZ9lZqZlFsDjQg3cIJ-4" edge="1">
          <mxGeometry relative="1" as="geometry" />
        </mxCell>
        <mxCell id="WIyWlLk6GJQsqaUBKTNV-11" value="查询分享用户当日分享次数" style="rounded=1;whiteSpace=wrap;html=1;fontSize=12;glass=0;strokeWidth=1;shadow=0;" parent="WIyWlLk6GJQsqaUBKTNV-1" vertex="1">
          <mxGeometry x="290" y="580" width="120" height="40" as="geometry" />
        </mxCell>
        <mxCell id="WIyWlLk6GJQsqaUBKTNV-12" value="结束" style="rounded=1;whiteSpace=wrap;html=1;fontSize=12;glass=0;strokeWidth=1;shadow=0;" parent="WIyWlLk6GJQsqaUBKTNV-1" vertex="1">
          <mxGeometry x="484" y="460" width="120" height="40" as="geometry" />
        </mxCell>
        <mxCell id="IeeZ9lZqZlFsDjQg3cIJ-3" style="edgeStyle=orthogonalEdgeStyle;rounded=0;orthogonalLoop=1;jettySize=auto;html=1;exitX=0.5;exitY=1;exitDx=0;exitDy=0;fontFamily=Helvetica;fontSize=12;fontColor=default;" parent="WIyWlLk6GJQsqaUBKTNV-1" source="IeeZ9lZqZlFsDjQg3cIJ-1" target="WIyWlLk6GJQsqaUBKTNV-10" edge="1">
          <mxGeometry relative="1" as="geometry" />
        </mxCell>
        <mxCell id="IeeZ9lZqZlFsDjQg3cIJ-1" value="获取活动信息" style="rounded=1;whiteSpace=wrap;html=1;fontSize=12;glass=0;strokeWidth=1;shadow=0;" parent="WIyWlLk6GJQsqaUBKTNV-1" vertex="1">
          <mxGeometry x="290" y="320" width="120" height="40" as="geometry" />
        </mxCell>
        <mxCell id="IeeZ9lZqZlFsDjQg3cIJ-7" value="是" style="edgeStyle=orthogonalEdgeStyle;rounded=0;orthogonalLoop=1;jettySize=auto;html=1;exitX=1;exitY=0.5;exitDx=0;exitDy=0;fontFamily=Helvetica;fontSize=12;fontColor=default;" parent="WIyWlLk6GJQsqaUBKTNV-1" source="IeeZ9lZqZlFsDjQg3cIJ-4" target="IeeZ9lZqZlFsDjQg3cIJ-6" edge="1">
          <mxGeometry relative="1" as="geometry" />
        </mxCell>
        <mxCell id="IeeZ9lZqZlFsDjQg3cIJ-9" style="edgeStyle=orthogonalEdgeStyle;rounded=0;orthogonalLoop=1;jettySize=auto;html=1;exitX=0.5;exitY=1;exitDx=0;exitDy=0;fontFamily=Helvetica;fontSize=12;fontColor=default;" parent="WIyWlLk6GJQsqaUBKTNV-1" source="IeeZ9lZqZlFsDjQg3cIJ-4" target="IeeZ9lZqZlFsDjQg3cIJ-8" edge="1">
          <mxGeometry relative="1" as="geometry" />
        </mxCell>
        <mxCell id="IeeZ9lZqZlFsDjQg3cIJ-4" value="用户当日分享次数是否已经超过了活动的分享限制次数" style="rhombus;whiteSpace=wrap;html=1;shadow=0;fontFamily=Helvetica;fontSize=12;align=center;strokeWidth=1;spacing=6;spacingTop=-4;" parent="WIyWlLk6GJQsqaUBKTNV-1" vertex="1">
          <mxGeometry x="300" y="700" width="100" height="80" as="geometry" />
        </mxCell>
        <mxCell id="IeeZ9lZqZlFsDjQg3cIJ-6" value="结束" style="rounded=1;whiteSpace=wrap;html=1;fontSize=12;glass=0;strokeWidth=1;shadow=0;" parent="WIyWlLk6GJQsqaUBKTNV-1" vertex="1">
          <mxGeometry x="484" y="720" width="120" height="40" as="geometry" />
        </mxCell>
        <mxCell id="cavRAeg5umnz87ZM6FMu-19" style="edgeStyle=orthogonalEdgeStyle;rounded=0;orthogonalLoop=1;jettySize=auto;html=1;exitX=0.5;exitY=1;exitDx=0;exitDy=0;entryX=0.5;entryY=0;entryDx=0;entryDy=0;" edge="1" parent="WIyWlLk6GJQsqaUBKTNV-1" source="IeeZ9lZqZlFsDjQg3cIJ-8" target="cavRAeg5umnz87ZM6FMu-18">
          <mxGeometry relative="1" as="geometry" />
        </mxCell>
        <mxCell id="IeeZ9lZqZlFsDjQg3cIJ-8" value="获取活动绑定的优惠券列表" style="rounded=1;whiteSpace=wrap;html=1;fontSize=12;glass=0;strokeWidth=1;shadow=0;" parent="WIyWlLk6GJQsqaUBKTNV-1" vertex="1">
          <mxGeometry x="290" y="870" width="120" height="40" as="geometry" />
        </mxCell>
        <mxCell id="cavRAeg5umnz87ZM6FMu-48" style="edgeStyle=orthogonalEdgeStyle;rounded=0;orthogonalLoop=1;jettySize=auto;html=1;exitX=0.5;exitY=1;exitDx=0;exitDy=0;entryX=0.5;entryY=0;entryDx=0;entryDy=0;" edge="1" parent="WIyWlLk6GJQsqaUBKTNV-1" source="cavRAeg5umnz87ZM6FMu-1" target="cavRAeg5umnz87ZM6FMu-45">
          <mxGeometry relative="1" as="geometry" />
        </mxCell>
        <mxCell id="cavRAeg5umnz87ZM6FMu-1" value="&lt;pre style=&quot;background-color: rgb(43 , 43 , 43) ; color: rgb(169 , 183 , 198) ; font-family: , monospace ; font-size: 9.8pt&quot;&gt;&lt;pre style=&quot;font-family: , monospace ; font-size: 9.8pt&quot;&gt;&lt;span style=&quot;color: #629755 ; font-style: italic&quot;&gt;邀请用车返券&lt;/span&gt;&lt;/pre&gt;&lt;/pre&gt;" style="rounded=1;whiteSpace=wrap;html=1;fontSize=12;glass=0;strokeWidth=1;shadow=0;spacing=6;spacingTop=-4;" vertex="1" parent="WIyWlLk6GJQsqaUBKTNV-1">
          <mxGeometry x="870" y="80" width="120" height="40" as="geometry" />
        </mxCell>
        <mxCell id="cavRAeg5umnz87ZM6FMu-6" style="edgeStyle=orthogonalEdgeStyle;rounded=0;orthogonalLoop=1;jettySize=auto;html=1;exitX=0.5;exitY=1;exitDx=0;exitDy=0;entryX=0.5;entryY=0;entryDx=0;entryDy=0;" edge="1" parent="WIyWlLk6GJQsqaUBKTNV-1" source="cavRAeg5umnz87ZM6FMu-3" target="cavRAeg5umnz87ZM6FMu-5">
          <mxGeometry relative="1" as="geometry" />
        </mxCell>
        <mxCell id="cavRAeg5umnz87ZM6FMu-3" value="查询分享用户当日分享次数" style="rounded=1;whiteSpace=wrap;html=1;fontSize=12;glass=0;strokeWidth=1;shadow=0;" vertex="1" parent="WIyWlLk6GJQsqaUBKTNV-1">
          <mxGeometry x="870" y="1500" width="120" height="40" as="geometry" />
        </mxCell>
        <mxCell id="cavRAeg5umnz87ZM6FMu-8" style="edgeStyle=orthogonalEdgeStyle;rounded=0;orthogonalLoop=1;jettySize=auto;html=1;exitX=1;exitY=0.5;exitDx=0;exitDy=0;" edge="1" parent="WIyWlLk6GJQsqaUBKTNV-1" source="cavRAeg5umnz87ZM6FMu-5" target="cavRAeg5umnz87ZM6FMu-7">
          <mxGeometry relative="1" as="geometry" />
        </mxCell>
        <mxCell id="cavRAeg5umnz87ZM6FMu-9" value="是" style="edgeLabel;html=1;align=center;verticalAlign=middle;resizable=0;points=[];" vertex="1" connectable="0" parent="cavRAeg5umnz87ZM6FMu-8">
          <mxGeometry x="-0.075" y="3" relative="1" as="geometry">
            <mxPoint as="offset" />
          </mxGeometry>
        </mxCell>
        <mxCell id="cavRAeg5umnz87ZM6FMu-12" style="edgeStyle=orthogonalEdgeStyle;rounded=0;orthogonalLoop=1;jettySize=auto;html=1;exitX=0.5;exitY=1;exitDx=0;exitDy=0;" edge="1" parent="WIyWlLk6GJQsqaUBKTNV-1" source="cavRAeg5umnz87ZM6FMu-5" target="cavRAeg5umnz87ZM6FMu-10">
          <mxGeometry relative="1" as="geometry" />
        </mxCell>
        <mxCell id="cavRAeg5umnz87ZM6FMu-5" value="用户当日分享次数是否已经超过了活动的分享限制次数" style="rhombus;whiteSpace=wrap;html=1;shadow=0;fontFamily=Helvetica;fontSize=12;align=center;strokeWidth=1;spacing=6;spacingTop=-4;" vertex="1" parent="WIyWlLk6GJQsqaUBKTNV-1">
          <mxGeometry x="880" y="1590" width="100" height="80" as="geometry" />
        </mxCell>
        <mxCell id="cavRAeg5umnz87ZM6FMu-7" value="结束" style="rounded=1;whiteSpace=wrap;html=1;fontSize=12;glass=0;strokeWidth=1;shadow=0;" vertex="1" parent="WIyWlLk6GJQsqaUBKTNV-1">
          <mxGeometry x="1070" y="1610" width="120" height="40" as="geometry" />
        </mxCell>
        <mxCell id="cavRAeg5umnz87ZM6FMu-14" style="edgeStyle=orthogonalEdgeStyle;rounded=0;orthogonalLoop=1;jettySize=auto;html=1;exitX=0.5;exitY=1;exitDx=0;exitDy=0;entryX=0.5;entryY=0;entryDx=0;entryDy=0;" edge="1" parent="WIyWlLk6GJQsqaUBKTNV-1" source="cavRAeg5umnz87ZM6FMu-10" target="cavRAeg5umnz87ZM6FMu-13">
          <mxGeometry relative="1" as="geometry" />
        </mxCell>
        <mxCell id="cavRAeg5umnz87ZM6FMu-10" value="获取活动绑定的优惠券列表" style="rounded=1;whiteSpace=wrap;html=1;fontSize=12;glass=0;strokeWidth=1;shadow=0;" vertex="1" parent="WIyWlLk6GJQsqaUBKTNV-1">
          <mxGeometry x="870" y="1750" width="120" height="40" as="geometry" />
        </mxCell>
        <mxCell id="cavRAeg5umnz87ZM6FMu-43" style="edgeStyle=orthogonalEdgeStyle;rounded=0;orthogonalLoop=1;jettySize=auto;html=1;exitX=0.5;exitY=1;exitDx=0;exitDy=0;entryX=0.5;entryY=0;entryDx=0;entryDy=0;" edge="1" parent="WIyWlLk6GJQsqaUBKTNV-1" source="cavRAeg5umnz87ZM6FMu-13" target="cavRAeg5umnz87ZM6FMu-40">
          <mxGeometry relative="1" as="geometry" />
        </mxCell>
        <mxCell id="cavRAeg5umnz87ZM6FMu-13" value="遍历优惠券列表并根据优惠券发放类型和用户是否为新用户过滤优惠券列表" style="rounded=1;whiteSpace=wrap;html=1;fontSize=12;glass=0;strokeWidth=1;shadow=0;" vertex="1" parent="WIyWlLk6GJQsqaUBKTNV-1">
          <mxGeometry x="870" y="1870" width="120" height="40" as="geometry" />
        </mxCell>
        <mxCell id="cavRAeg5umnz87ZM6FMu-21" value="是" style="edgeStyle=orthogonalEdgeStyle;rounded=0;orthogonalLoop=1;jettySize=auto;html=1;exitX=1;exitY=0.5;exitDx=0;exitDy=0;" edge="1" parent="WIyWlLk6GJQsqaUBKTNV-1" source="cavRAeg5umnz87ZM6FMu-18" target="cavRAeg5umnz87ZM6FMu-20">
          <mxGeometry relative="1" as="geometry" />
        </mxCell>
        <mxCell id="cavRAeg5umnz87ZM6FMu-23" style="edgeStyle=orthogonalEdgeStyle;rounded=0;orthogonalLoop=1;jettySize=auto;html=1;exitX=0.5;exitY=1;exitDx=0;exitDy=0;entryX=0.5;entryY=0;entryDx=0;entryDy=0;" edge="1" parent="WIyWlLk6GJQsqaUBKTNV-1" source="cavRAeg5umnz87ZM6FMu-18" target="cavRAeg5umnz87ZM6FMu-22">
          <mxGeometry relative="1" as="geometry" />
        </mxCell>
        <mxCell id="cavRAeg5umnz87ZM6FMu-28" value="否" style="edgeLabel;html=1;align=center;verticalAlign=middle;resizable=0;points=[];" vertex="1" connectable="0" parent="cavRAeg5umnz87ZM6FMu-23">
          <mxGeometry x="-0.1444" relative="1" as="geometry">
            <mxPoint as="offset" />
          </mxGeometry>
        </mxCell>
        <mxCell id="cavRAeg5umnz87ZM6FMu-18" value="优惠券列表是否为空" style="rhombus;whiteSpace=wrap;html=1;shadow=0;fontFamily=Helvetica;fontSize=12;align=center;strokeWidth=1;spacing=6;spacingTop=-4;" vertex="1" parent="WIyWlLk6GJQsqaUBKTNV-1">
          <mxGeometry x="300" y="990" width="100" height="80" as="geometry" />
        </mxCell>
        <mxCell id="cavRAeg5umnz87ZM6FMu-20" value="结束" style="rounded=1;whiteSpace=wrap;html=1;fontSize=12;glass=0;strokeWidth=1;shadow=0;" vertex="1" parent="WIyWlLk6GJQsqaUBKTNV-1">
          <mxGeometry x="484" y="1010" width="120" height="40" as="geometry" />
        </mxCell>
        <mxCell id="cavRAeg5umnz87ZM6FMu-25" style="edgeStyle=orthogonalEdgeStyle;rounded=0;orthogonalLoop=1;jettySize=auto;html=1;exitX=0.5;exitY=1;exitDx=0;exitDy=0;entryX=0.5;entryY=0;entryDx=0;entryDy=0;" edge="1" parent="WIyWlLk6GJQsqaUBKTNV-1" source="cavRAeg5umnz87ZM6FMu-22" target="cavRAeg5umnz87ZM6FMu-24">
          <mxGeometry relative="1" as="geometry" />
        </mxCell>
        <mxCell id="cavRAeg5umnz87ZM6FMu-22" value="根据发送类型过滤优惠券列表" style="rounded=1;whiteSpace=wrap;html=1;fontSize=12;glass=0;strokeWidth=1;shadow=0;" vertex="1" parent="WIyWlLk6GJQsqaUBKTNV-1">
          <mxGeometry x="290" y="1160" width="120" height="40" as="geometry" />
        </mxCell>
        <mxCell id="cavRAeg5umnz87ZM6FMu-27" style="edgeStyle=orthogonalEdgeStyle;rounded=0;orthogonalLoop=1;jettySize=auto;html=1;exitX=1;exitY=0.5;exitDx=0;exitDy=0;entryX=0;entryY=0.5;entryDx=0;entryDy=0;" edge="1" parent="WIyWlLk6GJQsqaUBKTNV-1" source="cavRAeg5umnz87ZM6FMu-24" target="cavRAeg5umnz87ZM6FMu-26">
          <mxGeometry relative="1" as="geometry" />
        </mxCell>
        <mxCell id="cavRAeg5umnz87ZM6FMu-29" value="是" style="edgeLabel;html=1;align=center;verticalAlign=middle;resizable=0;points=[];" vertex="1" connectable="0" parent="cavRAeg5umnz87ZM6FMu-27">
          <mxGeometry x="-0.12" relative="1" as="geometry">
            <mxPoint y="1" as="offset" />
          </mxGeometry>
        </mxCell>
        <mxCell id="cavRAeg5umnz87ZM6FMu-31" style="edgeStyle=orthogonalEdgeStyle;rounded=0;orthogonalLoop=1;jettySize=auto;html=1;exitX=0.5;exitY=1;exitDx=0;exitDy=0;entryX=0.5;entryY=0;entryDx=0;entryDy=0;" edge="1" parent="WIyWlLk6GJQsqaUBKTNV-1" source="cavRAeg5umnz87ZM6FMu-24" target="cavRAeg5umnz87ZM6FMu-30">
          <mxGeometry relative="1" as="geometry" />
        </mxCell>
        <mxCell id="cavRAeg5umnz87ZM6FMu-32" value="否" style="edgeLabel;html=1;align=center;verticalAlign=middle;resizable=0;points=[];" vertex="1" connectable="0" parent="cavRAeg5umnz87ZM6FMu-31">
          <mxGeometry x="-0.0286" relative="1" as="geometry">
            <mxPoint as="offset" />
          </mxGeometry>
        </mxCell>
        <mxCell id="cavRAeg5umnz87ZM6FMu-24" value="过滤之后优惠券列表是否为空" style="rhombus;whiteSpace=wrap;html=1;shadow=0;fontFamily=Helvetica;fontSize=12;align=center;strokeWidth=1;spacing=6;spacingTop=-4;" vertex="1" parent="WIyWlLk6GJQsqaUBKTNV-1">
          <mxGeometry x="300" y="1280" width="100" height="80" as="geometry" />
        </mxCell>
        <mxCell id="cavRAeg5umnz87ZM6FMu-26" value="结束" style="rounded=1;whiteSpace=wrap;html=1;fontSize=12;glass=0;strokeWidth=1;shadow=0;" vertex="1" parent="WIyWlLk6GJQsqaUBKTNV-1">
          <mxGeometry x="480" y="1300" width="120" height="40" as="geometry" />
        </mxCell>
        <mxCell id="cavRAeg5umnz87ZM6FMu-30" value="发送发券消息" style="rounded=1;whiteSpace=wrap;html=1;fontSize=12;glass=0;strokeWidth=1;shadow=0;" vertex="1" parent="WIyWlLk6GJQsqaUBKTNV-1">
          <mxGeometry x="290" y="1430" width="120" height="40" as="geometry" />
        </mxCell>
        <mxCell id="cavRAeg5umnz87ZM6FMu-35" style="edgeStyle=orthogonalEdgeStyle;rounded=0;orthogonalLoop=1;jettySize=auto;html=1;exitX=0.5;exitY=1;exitDx=0;exitDy=0;entryX=0.5;entryY=0;entryDx=0;entryDy=0;" edge="1" parent="WIyWlLk6GJQsqaUBKTNV-1" source="cavRAeg5umnz87ZM6FMu-33" target="cavRAeg5umnz87ZM6FMu-3">
          <mxGeometry relative="1" as="geometry" />
        </mxCell>
        <mxCell id="cavRAeg5umnz87ZM6FMu-33" value="获取用户是否为新注册用户" style="rounded=1;whiteSpace=wrap;html=1;fontSize=12;glass=0;strokeWidth=1;shadow=0;" vertex="1" parent="WIyWlLk6GJQsqaUBKTNV-1">
          <mxGeometry x="870" y="1410" width="120" height="40" as="geometry" />
        </mxCell>
        <mxCell id="cavRAeg5umnz87ZM6FMu-36" style="edgeStyle=orthogonalEdgeStyle;rounded=0;orthogonalLoop=1;jettySize=auto;html=1;exitX=1;exitY=0.5;exitDx=0;exitDy=0;entryX=0;entryY=0.5;entryDx=0;entryDy=0;" edge="1" parent="WIyWlLk6GJQsqaUBKTNV-1" source="cavRAeg5umnz87ZM6FMu-40" target="cavRAeg5umnz87ZM6FMu-41">
          <mxGeometry relative="1" as="geometry" />
        </mxCell>
        <mxCell id="cavRAeg5umnz87ZM6FMu-37" value="是" style="edgeLabel;html=1;align=center;verticalAlign=middle;resizable=0;points=[];" vertex="1" connectable="0" parent="cavRAeg5umnz87ZM6FMu-36">
          <mxGeometry x="-0.12" relative="1" as="geometry">
            <mxPoint y="1" as="offset" />
          </mxGeometry>
        </mxCell>
        <mxCell id="cavRAeg5umnz87ZM6FMu-38" style="edgeStyle=orthogonalEdgeStyle;rounded=0;orthogonalLoop=1;jettySize=auto;html=1;exitX=0.5;exitY=1;exitDx=0;exitDy=0;entryX=0.5;entryY=0;entryDx=0;entryDy=0;" edge="1" parent="WIyWlLk6GJQsqaUBKTNV-1" source="cavRAeg5umnz87ZM6FMu-40" target="cavRAeg5umnz87ZM6FMu-42">
          <mxGeometry relative="1" as="geometry" />
        </mxCell>
        <mxCell id="cavRAeg5umnz87ZM6FMu-39" value="否" style="edgeLabel;html=1;align=center;verticalAlign=middle;resizable=0;points=[];" vertex="1" connectable="0" parent="cavRAeg5umnz87ZM6FMu-38">
          <mxGeometry x="-0.0286" relative="1" as="geometry">
            <mxPoint as="offset" />
          </mxGeometry>
        </mxCell>
        <mxCell id="cavRAeg5umnz87ZM6FMu-40" value="过滤之后优惠券列表是否为空" style="rhombus;whiteSpace=wrap;html=1;shadow=0;fontFamily=Helvetica;fontSize=12;align=center;strokeWidth=1;spacing=6;spacingTop=-4;" vertex="1" parent="WIyWlLk6GJQsqaUBKTNV-1">
          <mxGeometry x="880" y="2010" width="100" height="80" as="geometry" />
        </mxCell>
        <mxCell id="cavRAeg5umnz87ZM6FMu-41" value="结束" style="rounded=1;whiteSpace=wrap;html=1;fontSize=12;glass=0;strokeWidth=1;shadow=0;" vertex="1" parent="WIyWlLk6GJQsqaUBKTNV-1">
          <mxGeometry x="1070" y="2030" width="120" height="40" as="geometry" />
        </mxCell>
        <mxCell id="cavRAeg5umnz87ZM6FMu-42" value="发送发券消息" style="rounded=1;whiteSpace=wrap;html=1;fontSize=12;glass=0;strokeWidth=1;shadow=0;" vertex="1" parent="WIyWlLk6GJQsqaUBKTNV-1">
          <mxGeometry x="870" y="2180" width="120" height="40" as="geometry" />
        </mxCell>
        <mxCell id="cavRAeg5umnz87ZM6FMu-47" value="否" style="edgeStyle=orthogonalEdgeStyle;rounded=0;orthogonalLoop=1;jettySize=auto;html=1;exitX=1;exitY=0.5;exitDx=0;exitDy=0;entryX=0;entryY=0.5;entryDx=0;entryDy=0;" edge="1" parent="WIyWlLk6GJQsqaUBKTNV-1" source="cavRAeg5umnz87ZM6FMu-45" target="cavRAeg5umnz87ZM6FMu-46">
          <mxGeometry relative="1" as="geometry" />
        </mxCell>
        <mxCell id="cavRAeg5umnz87ZM6FMu-54" style="edgeStyle=orthogonalEdgeStyle;rounded=0;orthogonalLoop=1;jettySize=auto;html=1;exitX=0.5;exitY=1;exitDx=0;exitDy=0;" edge="1" parent="WIyWlLk6GJQsqaUBKTNV-1" source="cavRAeg5umnz87ZM6FMu-45" target="cavRAeg5umnz87ZM6FMu-53">
          <mxGeometry relative="1" as="geometry" />
        </mxCell>
        <mxCell id="cavRAeg5umnz87ZM6FMu-55" value="是" style="edgeLabel;html=1;align=center;verticalAlign=middle;resizable=0;points=[];" vertex="1" connectable="0" parent="cavRAeg5umnz87ZM6FMu-54">
          <mxGeometry x="-0.1571" y="-2" relative="1" as="geometry">
            <mxPoint as="offset" />
          </mxGeometry>
        </mxCell>
        <mxCell id="cavRAeg5umnz87ZM6FMu-45" value="分享活动链接是否存在" style="rhombus;whiteSpace=wrap;html=1;shadow=0;fontFamily=Helvetica;fontSize=12;align=center;strokeWidth=1;spacing=6;spacingTop=-4;" vertex="1" parent="WIyWlLk6GJQsqaUBKTNV-1">
          <mxGeometry x="880" y="170" width="100" height="80" as="geometry" />
        </mxCell>
        <mxCell id="cavRAeg5umnz87ZM6FMu-46" value="结束" style="rounded=1;whiteSpace=wrap;html=1;fontSize=12;glass=0;strokeWidth=1;shadow=0;" vertex="1" parent="WIyWlLk6GJQsqaUBKTNV-1">
          <mxGeometry x="1070" y="190" width="120" height="40" as="geometry" />
        </mxCell>
        <mxCell id="cavRAeg5umnz87ZM6FMu-57" value="否" style="edgeStyle=orthogonalEdgeStyle;rounded=0;orthogonalLoop=1;jettySize=auto;html=1;exitX=1;exitY=0.5;exitDx=0;exitDy=0;entryX=0;entryY=0.5;entryDx=0;entryDy=0;" edge="1" parent="WIyWlLk6GJQsqaUBKTNV-1" source="cavRAeg5umnz87ZM6FMu-53" target="cavRAeg5umnz87ZM6FMu-56">
          <mxGeometry relative="1" as="geometry" />
        </mxCell>
        <mxCell id="cavRAeg5umnz87ZM6FMu-59" value="是" style="edgeStyle=orthogonalEdgeStyle;rounded=0;orthogonalLoop=1;jettySize=auto;html=1;exitX=0.5;exitY=1;exitDx=0;exitDy=0;entryX=0.5;entryY=0;entryDx=0;entryDy=0;" edge="1" parent="WIyWlLk6GJQsqaUBKTNV-1" source="cavRAeg5umnz87ZM6FMu-53" target="cavRAeg5umnz87ZM6FMu-58">
          <mxGeometry relative="1" as="geometry" />
        </mxCell>
        <mxCell id="cavRAeg5umnz87ZM6FMu-53" value="判断分享链接公司信息和被邀请方公司信息是否一致" style="rhombus;whiteSpace=wrap;html=1;shadow=0;fontFamily=Helvetica;fontSize=12;align=center;strokeWidth=1;spacing=6;spacingTop=-4;" vertex="1" parent="WIyWlLk6GJQsqaUBKTNV-1">
          <mxGeometry x="880" y="320" width="100" height="80" as="geometry" />
        </mxCell>
        <mxCell id="cavRAeg5umnz87ZM6FMu-56" value="结束" style="rounded=1;whiteSpace=wrap;html=1;fontSize=12;glass=0;strokeWidth=1;shadow=0;" vertex="1" parent="WIyWlLk6GJQsqaUBKTNV-1">
          <mxGeometry x="1070" y="340" width="120" height="40" as="geometry" />
        </mxCell>
        <mxCell id="cavRAeg5umnz87ZM6FMu-61" value="是" style="edgeStyle=orthogonalEdgeStyle;rounded=0;orthogonalLoop=1;jettySize=auto;html=1;exitX=1;exitY=0.5;exitDx=0;exitDy=0;entryX=0;entryY=0.5;entryDx=0;entryDy=0;" edge="1" parent="WIyWlLk6GJQsqaUBKTNV-1" source="cavRAeg5umnz87ZM6FMu-58" target="cavRAeg5umnz87ZM6FMu-60">
          <mxGeometry relative="1" as="geometry" />
        </mxCell>
        <mxCell id="cavRAeg5umnz87ZM6FMu-63" value="否" style="edgeStyle=orthogonalEdgeStyle;rounded=0;orthogonalLoop=1;jettySize=auto;html=1;exitX=0.5;exitY=1;exitDx=0;exitDy=0;entryX=0.5;entryY=0;entryDx=0;entryDy=0;" edge="1" parent="WIyWlLk6GJQsqaUBKTNV-1" source="cavRAeg5umnz87ZM6FMu-58" target="cavRAeg5umnz87ZM6FMu-62">
          <mxGeometry relative="1" as="geometry" />
        </mxCell>
        <mxCell id="cavRAeg5umnz87ZM6FMu-58" value="判断邀请人和被邀请人是否是同一个人" style="rhombus;whiteSpace=wrap;html=1;shadow=0;fontFamily=Helvetica;fontSize=12;align=center;strokeWidth=1;spacing=6;spacingTop=-4;" vertex="1" parent="WIyWlLk6GJQsqaUBKTNV-1">
          <mxGeometry x="880" y="480" width="100" height="80" as="geometry" />
        </mxCell>
        <mxCell id="cavRAeg5umnz87ZM6FMu-60" value="结束" style="rounded=1;whiteSpace=wrap;html=1;fontSize=12;glass=0;strokeWidth=1;shadow=0;" vertex="1" parent="WIyWlLk6GJQsqaUBKTNV-1">
          <mxGeometry x="1070" y="500" width="120" height="40" as="geometry" />
        </mxCell>
        <mxCell id="cavRAeg5umnz87ZM6FMu-65" style="edgeStyle=orthogonalEdgeStyle;rounded=0;orthogonalLoop=1;jettySize=auto;html=1;exitX=0.5;exitY=1;exitDx=0;exitDy=0;entryX=0.5;entryY=0;entryDx=0;entryDy=0;" edge="1" parent="WIyWlLk6GJQsqaUBKTNV-1" source="cavRAeg5umnz87ZM6FMu-62" target="cavRAeg5umnz87ZM6FMu-64">
          <mxGeometry relative="1" as="geometry" />
        </mxCell>
        <mxCell id="cavRAeg5umnz87ZM6FMu-62" value="获取活动信息" style="rounded=1;whiteSpace=wrap;html=1;fontSize=12;glass=0;strokeWidth=1;shadow=0;" vertex="1" parent="WIyWlLk6GJQsqaUBKTNV-1">
          <mxGeometry x="870" y="640" width="120" height="40" as="geometry" />
        </mxCell>
        <mxCell id="cavRAeg5umnz87ZM6FMu-67" value="否" style="edgeStyle=orthogonalEdgeStyle;rounded=0;orthogonalLoop=1;jettySize=auto;html=1;exitX=1;exitY=0.5;exitDx=0;exitDy=0;entryX=0;entryY=0.5;entryDx=0;entryDy=0;" edge="1" parent="WIyWlLk6GJQsqaUBKTNV-1" source="cavRAeg5umnz87ZM6FMu-64" target="cavRAeg5umnz87ZM6FMu-66">
          <mxGeometry relative="1" as="geometry" />
        </mxCell>
        <mxCell id="cavRAeg5umnz87ZM6FMu-69" style="edgeStyle=orthogonalEdgeStyle;rounded=0;orthogonalLoop=1;jettySize=auto;html=1;exitX=0.5;exitY=1;exitDx=0;exitDy=0;entryX=0.5;entryY=0;entryDx=0;entryDy=0;" edge="1" parent="WIyWlLk6GJQsqaUBKTNV-1" source="cavRAeg5umnz87ZM6FMu-64" target="cavRAeg5umnz87ZM6FMu-68">
          <mxGeometry relative="1" as="geometry" />
        </mxCell>
        <mxCell id="cavRAeg5umnz87ZM6FMu-74" value="是" style="edgeLabel;html=1;align=center;verticalAlign=middle;resizable=0;points=[];" vertex="1" connectable="0" parent="cavRAeg5umnz87ZM6FMu-69">
          <mxGeometry x="-0.075" y="2" relative="1" as="geometry">
            <mxPoint as="offset" />
          </mxGeometry>
        </mxCell>
        <mxCell id="cavRAeg5umnz87ZM6FMu-64" value="活动是否存在" style="rhombus;whiteSpace=wrap;html=1;shadow=0;fontFamily=Helvetica;fontSize=12;align=center;strokeWidth=1;spacing=6;spacingTop=-4;" vertex="1" parent="WIyWlLk6GJQsqaUBKTNV-1">
          <mxGeometry x="880" y="750" width="100" height="80" as="geometry" />
        </mxCell>
        <mxCell id="cavRAeg5umnz87ZM6FMu-66" value="结束" style="rounded=1;whiteSpace=wrap;html=1;fontSize=12;glass=0;strokeWidth=1;shadow=0;" vertex="1" parent="WIyWlLk6GJQsqaUBKTNV-1">
          <mxGeometry x="1070" y="770" width="120" height="40" as="geometry" />
        </mxCell>
        <mxCell id="cavRAeg5umnz87ZM6FMu-71" value="否" style="edgeStyle=orthogonalEdgeStyle;rounded=0;orthogonalLoop=1;jettySize=auto;html=1;exitX=1;exitY=0.5;exitDx=0;exitDy=0;" edge="1" parent="WIyWlLk6GJQsqaUBKTNV-1" source="cavRAeg5umnz87ZM6FMu-68" target="cavRAeg5umnz87ZM6FMu-70">
          <mxGeometry relative="1" as="geometry" />
        </mxCell>
        <mxCell id="cavRAeg5umnz87ZM6FMu-73" value="是" style="edgeStyle=orthogonalEdgeStyle;rounded=0;orthogonalLoop=1;jettySize=auto;html=1;exitX=0.5;exitY=1;exitDx=0;exitDy=0;" edge="1" parent="WIyWlLk6GJQsqaUBKTNV-1" source="cavRAeg5umnz87ZM6FMu-68" target="cavRAeg5umnz87ZM6FMu-72">
          <mxGeometry relative="1" as="geometry" />
        </mxCell>
        <mxCell id="cavRAeg5umnz87ZM6FMu-68" value="活动是否已经开始" style="rhombus;whiteSpace=wrap;html=1;shadow=0;fontFamily=Helvetica;fontSize=12;align=center;strokeWidth=1;spacing=6;spacingTop=-4;" vertex="1" parent="WIyWlLk6GJQsqaUBKTNV-1">
          <mxGeometry x="880" y="910" width="100" height="80" as="geometry" />
        </mxCell>
        <mxCell id="cavRAeg5umnz87ZM6FMu-70" value="结束" style="rounded=1;whiteSpace=wrap;html=1;fontSize=12;glass=0;strokeWidth=1;shadow=0;" vertex="1" parent="WIyWlLk6GJQsqaUBKTNV-1">
          <mxGeometry x="1070" y="930" width="120" height="40" as="geometry" />
        </mxCell>
        <mxCell id="cavRAeg5umnz87ZM6FMu-77" value="是" style="edgeStyle=orthogonalEdgeStyle;rounded=0;orthogonalLoop=1;jettySize=auto;html=1;exitX=1;exitY=0.5;exitDx=0;exitDy=0;entryX=0;entryY=0.5;entryDx=0;entryDy=0;" edge="1" parent="WIyWlLk6GJQsqaUBKTNV-1" source="cavRAeg5umnz87ZM6FMu-72" target="cavRAeg5umnz87ZM6FMu-76">
          <mxGeometry relative="1" as="geometry" />
        </mxCell>
        <mxCell id="cavRAeg5umnz87ZM6FMu-80" style="edgeStyle=orthogonalEdgeStyle;rounded=0;orthogonalLoop=1;jettySize=auto;html=1;exitX=0.5;exitY=1;exitDx=0;exitDy=0;entryX=0.5;entryY=0;entryDx=0;entryDy=0;" edge="1" parent="WIyWlLk6GJQsqaUBKTNV-1" source="cavRAeg5umnz87ZM6FMu-72" target="cavRAeg5umnz87ZM6FMu-79">
          <mxGeometry relative="1" as="geometry" />
        </mxCell>
        <mxCell id="cavRAeg5umnz87ZM6FMu-81" value="否" style="edgeLabel;html=1;align=center;verticalAlign=middle;resizable=0;points=[];" vertex="1" connectable="0" parent="cavRAeg5umnz87ZM6FMu-80">
          <mxGeometry x="-0.08" relative="1" as="geometry">
            <mxPoint as="offset" />
          </mxGeometry>
        </mxCell>
        <mxCell id="cavRAeg5umnz87ZM6FMu-72" value="活动是否已经过期" style="rhombus;whiteSpace=wrap;html=1;shadow=0;fontFamily=Helvetica;fontSize=12;align=center;strokeWidth=1;spacing=6;spacingTop=-4;" vertex="1" parent="WIyWlLk6GJQsqaUBKTNV-1">
          <mxGeometry x="880" y="1080" width="100" height="80" as="geometry" />
        </mxCell>
        <mxCell id="cavRAeg5umnz87ZM6FMu-76" value="结束" style="rounded=1;whiteSpace=wrap;html=1;fontSize=12;glass=0;strokeWidth=1;shadow=0;" vertex="1" parent="WIyWlLk6GJQsqaUBKTNV-1">
          <mxGeometry x="1070" y="1100" width="120" height="40" as="geometry" />
        </mxCell>
        <mxCell id="cavRAeg5umnz87ZM6FMu-82" value="&lt;pre style=&quot;background-color: #2b2b2b ; color: #a9b7c6 ; font-family: &amp;#34;menlo-regular&amp;#34; , monospace ; font-size: 9.8pt&quot;&gt;&lt;span style=&quot;color: #629755 ; font-style: italic&quot;&gt;邀请用车返券&lt;/span&gt;&lt;span style=&quot;color: #629755 ; font-style: italic ; font-family: &amp;#34;jetbrains mono&amp;#34; , monospace&quot;&gt;,&lt;/span&gt;&lt;span style=&quot;color: #629755 ; font-style: italic&quot;&gt;被邀请方得&lt;/span&gt;&lt;/pre&gt;" style="edgeStyle=orthogonalEdgeStyle;rounded=0;orthogonalLoop=1;jettySize=auto;html=1;exitX=0.5;exitY=1;exitDx=0;exitDy=0;entryX=0.5;entryY=0;entryDx=0;entryDy=0;" edge="1" parent="WIyWlLk6GJQsqaUBKTNV-1" source="cavRAeg5umnz87ZM6FMu-79" target="cavRAeg5umnz87ZM6FMu-33">
          <mxGeometry relative="1" as="geometry" />
        </mxCell>
        <mxCell id="cavRAeg5umnz87ZM6FMu-113" value="否" style="edgeLabel;html=1;align=center;verticalAlign=middle;resizable=0;points=[];" vertex="1" connectable="0" parent="cavRAeg5umnz87ZM6FMu-82">
          <mxGeometry x="-0.85" y="1" relative="1" as="geometry">
            <mxPoint x="-1" y="11" as="offset" />
          </mxGeometry>
        </mxCell>
        <mxCell id="cavRAeg5umnz87ZM6FMu-85" style="edgeStyle=orthogonalEdgeStyle;rounded=0;orthogonalLoop=1;jettySize=auto;html=1;exitX=1;exitY=0.5;exitDx=0;exitDy=0;entryX=0;entryY=0.5;entryDx=0;entryDy=0;" edge="1" parent="WIyWlLk6GJQsqaUBKTNV-1" source="cavRAeg5umnz87ZM6FMu-79" target="cavRAeg5umnz87ZM6FMu-83">
          <mxGeometry relative="1" as="geometry" />
        </mxCell>
        <mxCell id="cavRAeg5umnz87ZM6FMu-86" value="&lt;pre style=&quot;background-color: #2b2b2b ; color: #a9b7c6 ; font-family: &amp;#34;menlo-regular&amp;#34; , monospace ; font-size: 9.8pt&quot;&gt;&lt;span style=&quot;color: #629755 ; font-style: italic&quot;&gt;邀请用车发券&lt;/span&gt;&lt;span style=&quot;color: #629755 ; font-style: italic ; font-family: &amp;#34;jetbrains mono&amp;#34; , monospace&quot;&gt;,&lt;/span&gt;&lt;span style=&quot;color: #629755 ; font-style: italic&quot;&gt;邀请方得&lt;/span&gt;&lt;/pre&gt;" style="edgeLabel;html=1;align=center;verticalAlign=middle;resizable=0;points=[];" vertex="1" connectable="0" parent="cavRAeg5umnz87ZM6FMu-85">
          <mxGeometry x="-0.1086" y="1" relative="1" as="geometry">
            <mxPoint as="offset" />
          </mxGeometry>
        </mxCell>
        <mxCell id="cavRAeg5umnz87ZM6FMu-112" value="是" style="edgeLabel;html=1;align=center;verticalAlign=middle;resizable=0;points=[];" vertex="1" connectable="0" parent="cavRAeg5umnz87ZM6FMu-85">
          <mxGeometry x="-0.7314" y="-1" relative="1" as="geometry">
            <mxPoint as="offset" />
          </mxGeometry>
        </mxCell>
        <mxCell id="cavRAeg5umnz87ZM6FMu-79" value="判断是否是订单发券" style="rhombus;whiteSpace=wrap;html=1;shadow=0;fontFamily=Helvetica;fontSize=12;align=center;strokeWidth=1;spacing=6;spacingTop=-4;" vertex="1" parent="WIyWlLk6GJQsqaUBKTNV-1">
          <mxGeometry x="880" y="1210" width="100" height="80" as="geometry" />
        </mxCell>
        <mxCell id="cavRAeg5umnz87ZM6FMu-88" style="edgeStyle=orthogonalEdgeStyle;rounded=0;orthogonalLoop=1;jettySize=auto;html=1;exitX=0.5;exitY=1;exitDx=0;exitDy=0;" edge="1" parent="WIyWlLk6GJQsqaUBKTNV-1" source="cavRAeg5umnz87ZM6FMu-83" target="cavRAeg5umnz87ZM6FMu-87">
          <mxGeometry relative="1" as="geometry" />
        </mxCell>
        <mxCell id="cavRAeg5umnz87ZM6FMu-83" value="获取活动限制条件类型" style="rounded=1;whiteSpace=wrap;html=1;fontSize=12;glass=0;strokeWidth=1;shadow=0;" vertex="1" parent="WIyWlLk6GJQsqaUBKTNV-1">
          <mxGeometry x="1330" y="1230" width="120" height="40" as="geometry" />
        </mxCell>
        <mxCell id="cavRAeg5umnz87ZM6FMu-91" style="edgeStyle=orthogonalEdgeStyle;rounded=0;orthogonalLoop=1;jettySize=auto;html=1;exitX=0.5;exitY=1;exitDx=0;exitDy=0;entryX=0.5;entryY=0;entryDx=0;entryDy=0;" edge="1" parent="WIyWlLk6GJQsqaUBKTNV-1" source="cavRAeg5umnz87ZM6FMu-87" target="cavRAeg5umnz87ZM6FMu-90">
          <mxGeometry relative="1" as="geometry" />
        </mxCell>
        <mxCell id="cavRAeg5umnz87ZM6FMu-87" value="计算活动限制条件时长" style="rounded=1;whiteSpace=wrap;html=1;fontSize=12;glass=0;strokeWidth=1;shadow=0;" vertex="1" parent="WIyWlLk6GJQsqaUBKTNV-1">
          <mxGeometry x="1330" y="1370" width="120" height="40" as="geometry" />
        </mxCell>
        <mxCell id="cavRAeg5umnz87ZM6FMu-93" value="否" style="edgeStyle=orthogonalEdgeStyle;rounded=0;orthogonalLoop=1;jettySize=auto;html=1;exitX=1;exitY=0.5;exitDx=0;exitDy=0;entryX=0;entryY=0.5;entryDx=0;entryDy=0;" edge="1" parent="WIyWlLk6GJQsqaUBKTNV-1" source="cavRAeg5umnz87ZM6FMu-90" target="cavRAeg5umnz87ZM6FMu-92">
          <mxGeometry relative="1" as="geometry" />
        </mxCell>
        <mxCell id="cavRAeg5umnz87ZM6FMu-95" style="edgeStyle=orthogonalEdgeStyle;rounded=0;orthogonalLoop=1;jettySize=auto;html=1;exitX=0.5;exitY=1;exitDx=0;exitDy=0;entryX=0.5;entryY=0;entryDx=0;entryDy=0;" edge="1" parent="WIyWlLk6GJQsqaUBKTNV-1" source="cavRAeg5umnz87ZM6FMu-90" target="cavRAeg5umnz87ZM6FMu-94">
          <mxGeometry relative="1" as="geometry" />
        </mxCell>
        <mxCell id="cavRAeg5umnz87ZM6FMu-90" value="判断用车市场是否满足活动条件" style="rhombus;whiteSpace=wrap;html=1;shadow=0;fontFamily=Helvetica;fontSize=12;align=center;strokeWidth=1;spacing=6;spacingTop=-4;" vertex="1" parent="WIyWlLk6GJQsqaUBKTNV-1">
          <mxGeometry x="1340" y="1490" width="100" height="80" as="geometry" />
        </mxCell>
        <mxCell id="cavRAeg5umnz87ZM6FMu-92" value="结束" style="rounded=1;whiteSpace=wrap;html=1;fontSize=12;glass=0;strokeWidth=1;shadow=0;" vertex="1" parent="WIyWlLk6GJQsqaUBKTNV-1">
          <mxGeometry x="1520" y="1510" width="120" height="40" as="geometry" />
        </mxCell>
        <mxCell id="cavRAeg5umnz87ZM6FMu-98" style="edgeStyle=orthogonalEdgeStyle;rounded=0;orthogonalLoop=1;jettySize=auto;html=1;exitX=0.5;exitY=1;exitDx=0;exitDy=0;entryX=0.5;entryY=0;entryDx=0;entryDy=0;" edge="1" parent="WIyWlLk6GJQsqaUBKTNV-1" source="cavRAeg5umnz87ZM6FMu-94" target="cavRAeg5umnz87ZM6FMu-96">
          <mxGeometry relative="1" as="geometry" />
        </mxCell>
        <mxCell id="cavRAeg5umnz87ZM6FMu-94" value="获取用户信息" style="rounded=1;whiteSpace=wrap;html=1;fontSize=12;glass=0;strokeWidth=1;shadow=0;" vertex="1" parent="WIyWlLk6GJQsqaUBKTNV-1">
          <mxGeometry x="1330" y="1660" width="120" height="40" as="geometry" />
        </mxCell>
        <mxCell id="cavRAeg5umnz87ZM6FMu-100" style="edgeStyle=orthogonalEdgeStyle;rounded=0;orthogonalLoop=1;jettySize=auto;html=1;exitX=0.5;exitY=1;exitDx=0;exitDy=0;entryX=0.5;entryY=0;entryDx=0;entryDy=0;" edge="1" parent="WIyWlLk6GJQsqaUBKTNV-1" source="cavRAeg5umnz87ZM6FMu-96" target="cavRAeg5umnz87ZM6FMu-99">
          <mxGeometry relative="1" as="geometry" />
        </mxCell>
        <mxCell id="cavRAeg5umnz87ZM6FMu-96" value="获取用户是否为新注册用户" style="rounded=1;whiteSpace=wrap;html=1;fontSize=12;glass=0;strokeWidth=1;shadow=0;" vertex="1" parent="WIyWlLk6GJQsqaUBKTNV-1">
          <mxGeometry x="1330" y="1790" width="120" height="40" as="geometry" />
        </mxCell>
        <mxCell id="cavRAeg5umnz87ZM6FMu-102" style="edgeStyle=orthogonalEdgeStyle;rounded=0;orthogonalLoop=1;jettySize=auto;html=1;exitX=0.5;exitY=1;exitDx=0;exitDy=0;entryX=0.5;entryY=0;entryDx=0;entryDy=0;" edge="1" parent="WIyWlLk6GJQsqaUBKTNV-1" source="cavRAeg5umnz87ZM6FMu-99" target="cavRAeg5umnz87ZM6FMu-101">
          <mxGeometry relative="1" as="geometry" />
        </mxCell>
        <mxCell id="cavRAeg5umnz87ZM6FMu-99" value="获取活动绑定的优惠券列表" style="rounded=1;whiteSpace=wrap;html=1;fontSize=12;glass=0;strokeWidth=1;shadow=0;" vertex="1" parent="WIyWlLk6GJQsqaUBKTNV-1">
          <mxGeometry x="1330" y="1920" width="120" height="40" as="geometry" />
        </mxCell>
        <mxCell id="cavRAeg5umnz87ZM6FMu-111" style="edgeStyle=orthogonalEdgeStyle;rounded=0;orthogonalLoop=1;jettySize=auto;html=1;exitX=0.5;exitY=1;exitDx=0;exitDy=0;entryX=0.5;entryY=0;entryDx=0;entryDy=0;" edge="1" parent="WIyWlLk6GJQsqaUBKTNV-1" source="cavRAeg5umnz87ZM6FMu-101" target="cavRAeg5umnz87ZM6FMu-108">
          <mxGeometry relative="1" as="geometry" />
        </mxCell>
        <mxCell id="cavRAeg5umnz87ZM6FMu-101" value="遍历优惠券列表并根据优惠券发放类型和用户是否为新用户过滤优惠券列表" style="rounded=1;whiteSpace=wrap;html=1;fontSize=12;glass=0;strokeWidth=1;shadow=0;" vertex="1" parent="WIyWlLk6GJQsqaUBKTNV-1">
          <mxGeometry x="1330" y="2050" width="120" height="40" as="geometry" />
        </mxCell>
        <mxCell id="cavRAeg5umnz87ZM6FMu-104" style="edgeStyle=orthogonalEdgeStyle;rounded=0;orthogonalLoop=1;jettySize=auto;html=1;exitX=1;exitY=0.5;exitDx=0;exitDy=0;entryX=0;entryY=0.5;entryDx=0;entryDy=0;" edge="1" parent="WIyWlLk6GJQsqaUBKTNV-1" source="cavRAeg5umnz87ZM6FMu-108" target="cavRAeg5umnz87ZM6FMu-109">
          <mxGeometry relative="1" as="geometry" />
        </mxCell>
        <mxCell id="cavRAeg5umnz87ZM6FMu-105" value="是" style="edgeLabel;html=1;align=center;verticalAlign=middle;resizable=0;points=[];" vertex="1" connectable="0" parent="cavRAeg5umnz87ZM6FMu-104">
          <mxGeometry x="-0.12" relative="1" as="geometry">
            <mxPoint y="1" as="offset" />
          </mxGeometry>
        </mxCell>
        <mxCell id="cavRAeg5umnz87ZM6FMu-106" style="edgeStyle=orthogonalEdgeStyle;rounded=0;orthogonalLoop=1;jettySize=auto;html=1;exitX=0.5;exitY=1;exitDx=0;exitDy=0;entryX=0.5;entryY=0;entryDx=0;entryDy=0;" edge="1" parent="WIyWlLk6GJQsqaUBKTNV-1" source="cavRAeg5umnz87ZM6FMu-108" target="cavRAeg5umnz87ZM6FMu-110">
          <mxGeometry relative="1" as="geometry" />
        </mxCell>
        <mxCell id="cavRAeg5umnz87ZM6FMu-107" value="否" style="edgeLabel;html=1;align=center;verticalAlign=middle;resizable=0;points=[];" vertex="1" connectable="0" parent="cavRAeg5umnz87ZM6FMu-106">
          <mxGeometry x="-0.0286" relative="1" as="geometry">
            <mxPoint as="offset" />
          </mxGeometry>
        </mxCell>
        <mxCell id="cavRAeg5umnz87ZM6FMu-108" value="过滤之后优惠券列表是否为空" style="rhombus;whiteSpace=wrap;html=1;shadow=0;fontFamily=Helvetica;fontSize=12;align=center;strokeWidth=1;spacing=6;spacingTop=-4;" vertex="1" parent="WIyWlLk6GJQsqaUBKTNV-1">
          <mxGeometry x="1340" y="2160" width="100" height="80" as="geometry" />
        </mxCell>
        <mxCell id="cavRAeg5umnz87ZM6FMu-109" value="结束" style="rounded=1;whiteSpace=wrap;html=1;fontSize=12;glass=0;strokeWidth=1;shadow=0;" vertex="1" parent="WIyWlLk6GJQsqaUBKTNV-1">
          <mxGeometry x="1490" y="2180" width="120" height="40" as="geometry" />
        </mxCell>
        <mxCell id="cavRAeg5umnz87ZM6FMu-110" value="发送发券消息" style="rounded=1;whiteSpace=wrap;html=1;fontSize=12;glass=0;strokeWidth=1;shadow=0;" vertex="1" parent="WIyWlLk6GJQsqaUBKTNV-1">
          <mxGeometry x="1330" y="2330" width="120" height="40" as="geometry" />
        </mxCell>
        <mxCell id="cavRAeg5umnz87ZM6FMu-142" style="edgeStyle=orthogonalEdgeStyle;rounded=0;orthogonalLoop=1;jettySize=auto;html=1;exitX=0.5;exitY=1;exitDx=0;exitDy=0;" edge="1" parent="WIyWlLk6GJQsqaUBKTNV-1" source="cavRAeg5umnz87ZM6FMu-114" target="cavRAeg5umnz87ZM6FMu-118">
          <mxGeometry relative="1" as="geometry" />
        </mxCell>
        <mxCell id="cavRAeg5umnz87ZM6FMu-114" value="&lt;pre style=&quot;background-color: rgb(43 , 43 , 43) ; color: rgb(169 , 183 , 198) ; font-family: , monospace ; font-size: 9.8pt&quot;&gt;&lt;pre style=&quot;font-family: , monospace ; font-size: 9.8pt&quot;&gt;&lt;span style=&quot;color: #629755 ; font-style: italic&quot;&gt;分享送（注册时携带分享链接）&lt;/span&gt;&lt;/pre&gt;&lt;/pre&gt;" style="rounded=1;whiteSpace=wrap;html=1;fontSize=12;glass=0;strokeWidth=1;shadow=0;spacing=6;spacingTop=-4;" vertex="1" parent="WIyWlLk6GJQsqaUBKTNV-1">
          <mxGeometry x="1880" y="60" width="120" height="40" as="geometry" />
        </mxCell>
        <mxCell id="cavRAeg5umnz87ZM6FMu-115" value="否" style="edgeStyle=orthogonalEdgeStyle;rounded=0;orthogonalLoop=1;jettySize=auto;html=1;exitX=1;exitY=0.5;exitDx=0;exitDy=0;entryX=0;entryY=0.5;entryDx=0;entryDy=0;" edge="1" parent="WIyWlLk6GJQsqaUBKTNV-1" source="cavRAeg5umnz87ZM6FMu-118" target="cavRAeg5umnz87ZM6FMu-119">
          <mxGeometry relative="1" as="geometry" />
        </mxCell>
        <mxCell id="cavRAeg5umnz87ZM6FMu-116" style="edgeStyle=orthogonalEdgeStyle;rounded=0;orthogonalLoop=1;jettySize=auto;html=1;exitX=0.5;exitY=1;exitDx=0;exitDy=0;" edge="1" parent="WIyWlLk6GJQsqaUBKTNV-1" source="cavRAeg5umnz87ZM6FMu-118" target="cavRAeg5umnz87ZM6FMu-122">
          <mxGeometry relative="1" as="geometry" />
        </mxCell>
        <mxCell id="cavRAeg5umnz87ZM6FMu-117" value="是" style="edgeLabel;html=1;align=center;verticalAlign=middle;resizable=0;points=[];" vertex="1" connectable="0" parent="cavRAeg5umnz87ZM6FMu-116">
          <mxGeometry x="-0.1571" y="-2" relative="1" as="geometry">
            <mxPoint as="offset" />
          </mxGeometry>
        </mxCell>
        <mxCell id="cavRAeg5umnz87ZM6FMu-118" value="分享活动链接是否存在" style="rhombus;whiteSpace=wrap;html=1;shadow=0;fontFamily=Helvetica;fontSize=12;align=center;strokeWidth=1;spacing=6;spacingTop=-4;" vertex="1" parent="WIyWlLk6GJQsqaUBKTNV-1">
          <mxGeometry x="1890" y="190" width="100" height="80" as="geometry" />
        </mxCell>
        <mxCell id="cavRAeg5umnz87ZM6FMu-119" value="结束" style="rounded=1;whiteSpace=wrap;html=1;fontSize=12;glass=0;strokeWidth=1;shadow=0;" vertex="1" parent="WIyWlLk6GJQsqaUBKTNV-1">
          <mxGeometry x="2100" y="210" width="120" height="40" as="geometry" />
        </mxCell>
        <mxCell id="cavRAeg5umnz87ZM6FMu-120" value="否" style="edgeStyle=orthogonalEdgeStyle;rounded=0;orthogonalLoop=1;jettySize=auto;html=1;exitX=1;exitY=0.5;exitDx=0;exitDy=0;entryX=0;entryY=0.5;entryDx=0;entryDy=0;" edge="1" parent="WIyWlLk6GJQsqaUBKTNV-1" source="cavRAeg5umnz87ZM6FMu-122" target="cavRAeg5umnz87ZM6FMu-123">
          <mxGeometry relative="1" as="geometry" />
        </mxCell>
        <mxCell id="cavRAeg5umnz87ZM6FMu-121" value="是" style="edgeStyle=orthogonalEdgeStyle;rounded=0;orthogonalLoop=1;jettySize=auto;html=1;exitX=0.5;exitY=1;exitDx=0;exitDy=0;entryX=0.5;entryY=0;entryDx=0;entryDy=0;" edge="1" parent="WIyWlLk6GJQsqaUBKTNV-1" source="cavRAeg5umnz87ZM6FMu-122" target="cavRAeg5umnz87ZM6FMu-126">
          <mxGeometry relative="1" as="geometry" />
        </mxCell>
        <mxCell id="cavRAeg5umnz87ZM6FMu-122" value="判断分享链接公司信息和被邀请方公司信息是否一致" style="rhombus;whiteSpace=wrap;html=1;shadow=0;fontFamily=Helvetica;fontSize=12;align=center;strokeWidth=1;spacing=6;spacingTop=-4;" vertex="1" parent="WIyWlLk6GJQsqaUBKTNV-1">
          <mxGeometry x="1890" y="340" width="100" height="80" as="geometry" />
        </mxCell>
        <mxCell id="cavRAeg5umnz87ZM6FMu-123" value="结束" style="rounded=1;whiteSpace=wrap;html=1;fontSize=12;glass=0;strokeWidth=1;shadow=0;" vertex="1" parent="WIyWlLk6GJQsqaUBKTNV-1">
          <mxGeometry x="2100" y="360" width="120" height="40" as="geometry" />
        </mxCell>
        <mxCell id="cavRAeg5umnz87ZM6FMu-124" value="是" style="edgeStyle=orthogonalEdgeStyle;rounded=0;orthogonalLoop=1;jettySize=auto;html=1;exitX=1;exitY=0.5;exitDx=0;exitDy=0;entryX=0;entryY=0.5;entryDx=0;entryDy=0;" edge="1" parent="WIyWlLk6GJQsqaUBKTNV-1" source="cavRAeg5umnz87ZM6FMu-126" target="cavRAeg5umnz87ZM6FMu-127">
          <mxGeometry relative="1" as="geometry" />
        </mxCell>
        <mxCell id="cavRAeg5umnz87ZM6FMu-125" value="否" style="edgeStyle=orthogonalEdgeStyle;rounded=0;orthogonalLoop=1;jettySize=auto;html=1;exitX=0.5;exitY=1;exitDx=0;exitDy=0;entryX=0.5;entryY=0;entryDx=0;entryDy=0;" edge="1" parent="WIyWlLk6GJQsqaUBKTNV-1" source="cavRAeg5umnz87ZM6FMu-126" target="cavRAeg5umnz87ZM6FMu-129">
          <mxGeometry relative="1" as="geometry" />
        </mxCell>
        <mxCell id="cavRAeg5umnz87ZM6FMu-126" value="判断邀请人和被邀请人是否是同一个人" style="rhombus;whiteSpace=wrap;html=1;shadow=0;fontFamily=Helvetica;fontSize=12;align=center;strokeWidth=1;spacing=6;spacingTop=-4;" vertex="1" parent="WIyWlLk6GJQsqaUBKTNV-1">
          <mxGeometry x="1890" y="500" width="100" height="80" as="geometry" />
        </mxCell>
        <mxCell id="cavRAeg5umnz87ZM6FMu-127" value="结束" style="rounded=1;whiteSpace=wrap;html=1;fontSize=12;glass=0;strokeWidth=1;shadow=0;" vertex="1" parent="WIyWlLk6GJQsqaUBKTNV-1">
          <mxGeometry x="2100" y="520" width="120" height="40" as="geometry" />
        </mxCell>
        <mxCell id="cavRAeg5umnz87ZM6FMu-128" style="edgeStyle=orthogonalEdgeStyle;rounded=0;orthogonalLoop=1;jettySize=auto;html=1;exitX=0.5;exitY=1;exitDx=0;exitDy=0;entryX=0.5;entryY=0;entryDx=0;entryDy=0;" edge="1" parent="WIyWlLk6GJQsqaUBKTNV-1" source="cavRAeg5umnz87ZM6FMu-129" target="cavRAeg5umnz87ZM6FMu-133">
          <mxGeometry relative="1" as="geometry" />
        </mxCell>
        <mxCell id="cavRAeg5umnz87ZM6FMu-129" value="获取活动信息" style="rounded=1;whiteSpace=wrap;html=1;fontSize=12;glass=0;strokeWidth=1;shadow=0;" vertex="1" parent="WIyWlLk6GJQsqaUBKTNV-1">
          <mxGeometry x="1880" y="660" width="120" height="40" as="geometry" />
        </mxCell>
        <mxCell id="cavRAeg5umnz87ZM6FMu-130" value="否" style="edgeStyle=orthogonalEdgeStyle;rounded=0;orthogonalLoop=1;jettySize=auto;html=1;exitX=1;exitY=0.5;exitDx=0;exitDy=0;entryX=0;entryY=0.5;entryDx=0;entryDy=0;" edge="1" parent="WIyWlLk6GJQsqaUBKTNV-1" source="cavRAeg5umnz87ZM6FMu-133" target="cavRAeg5umnz87ZM6FMu-134">
          <mxGeometry relative="1" as="geometry" />
        </mxCell>
        <mxCell id="cavRAeg5umnz87ZM6FMu-131" style="edgeStyle=orthogonalEdgeStyle;rounded=0;orthogonalLoop=1;jettySize=auto;html=1;exitX=0.5;exitY=1;exitDx=0;exitDy=0;entryX=0.5;entryY=0;entryDx=0;entryDy=0;" edge="1" parent="WIyWlLk6GJQsqaUBKTNV-1" source="cavRAeg5umnz87ZM6FMu-133" target="cavRAeg5umnz87ZM6FMu-137">
          <mxGeometry relative="1" as="geometry" />
        </mxCell>
        <mxCell id="cavRAeg5umnz87ZM6FMu-132" value="是" style="edgeLabel;html=1;align=center;verticalAlign=middle;resizable=0;points=[];" vertex="1" connectable="0" parent="cavRAeg5umnz87ZM6FMu-131">
          <mxGeometry x="-0.075" y="2" relative="1" as="geometry">
            <mxPoint as="offset" />
          </mxGeometry>
        </mxCell>
        <mxCell id="cavRAeg5umnz87ZM6FMu-133" value="活动是否存在" style="rhombus;whiteSpace=wrap;html=1;shadow=0;fontFamily=Helvetica;fontSize=12;align=center;strokeWidth=1;spacing=6;spacingTop=-4;" vertex="1" parent="WIyWlLk6GJQsqaUBKTNV-1">
          <mxGeometry x="1890" y="770" width="100" height="80" as="geometry" />
        </mxCell>
        <mxCell id="cavRAeg5umnz87ZM6FMu-134" value="结束" style="rounded=1;whiteSpace=wrap;html=1;fontSize=12;glass=0;strokeWidth=1;shadow=0;" vertex="1" parent="WIyWlLk6GJQsqaUBKTNV-1">
          <mxGeometry x="2100" y="790" width="120" height="40" as="geometry" />
        </mxCell>
        <mxCell id="cavRAeg5umnz87ZM6FMu-135" value="否" style="edgeStyle=orthogonalEdgeStyle;rounded=0;orthogonalLoop=1;jettySize=auto;html=1;exitX=1;exitY=0.5;exitDx=0;exitDy=0;" edge="1" parent="WIyWlLk6GJQsqaUBKTNV-1" source="cavRAeg5umnz87ZM6FMu-137" target="cavRAeg5umnz87ZM6FMu-138">
          <mxGeometry relative="1" as="geometry" />
        </mxCell>
        <mxCell id="cavRAeg5umnz87ZM6FMu-136" value="是" style="edgeStyle=orthogonalEdgeStyle;rounded=0;orthogonalLoop=1;jettySize=auto;html=1;exitX=0.5;exitY=1;exitDx=0;exitDy=0;" edge="1" parent="WIyWlLk6GJQsqaUBKTNV-1" source="cavRAeg5umnz87ZM6FMu-137" target="cavRAeg5umnz87ZM6FMu-140">
          <mxGeometry relative="1" as="geometry" />
        </mxCell>
        <mxCell id="cavRAeg5umnz87ZM6FMu-137" value="活动是否已经开始" style="rhombus;whiteSpace=wrap;html=1;shadow=0;fontFamily=Helvetica;fontSize=12;align=center;strokeWidth=1;spacing=6;spacingTop=-4;" vertex="1" parent="WIyWlLk6GJQsqaUBKTNV-1">
          <mxGeometry x="1890" y="930" width="100" height="80" as="geometry" />
        </mxCell>
        <mxCell id="cavRAeg5umnz87ZM6FMu-138" value="结束" style="rounded=1;whiteSpace=wrap;html=1;fontSize=12;glass=0;strokeWidth=1;shadow=0;" vertex="1" parent="WIyWlLk6GJQsqaUBKTNV-1">
          <mxGeometry x="2100" y="950" width="120" height="40" as="geometry" />
        </mxCell>
        <mxCell id="cavRAeg5umnz87ZM6FMu-139" value="是" style="edgeStyle=orthogonalEdgeStyle;rounded=0;orthogonalLoop=1;jettySize=auto;html=1;exitX=1;exitY=0.5;exitDx=0;exitDy=0;entryX=0;entryY=0.5;entryDx=0;entryDy=0;" edge="1" parent="WIyWlLk6GJQsqaUBKTNV-1" source="cavRAeg5umnz87ZM6FMu-140" target="cavRAeg5umnz87ZM6FMu-141">
          <mxGeometry relative="1" as="geometry" />
        </mxCell>
        <mxCell id="cavRAeg5umnz87ZM6FMu-144" style="edgeStyle=orthogonalEdgeStyle;rounded=0;orthogonalLoop=1;jettySize=auto;html=1;exitX=0.5;exitY=1;exitDx=0;exitDy=0;entryX=0.5;entryY=0;entryDx=0;entryDy=0;" edge="1" parent="WIyWlLk6GJQsqaUBKTNV-1" source="cavRAeg5umnz87ZM6FMu-140" target="cavRAeg5umnz87ZM6FMu-143">
          <mxGeometry relative="1" as="geometry" />
        </mxCell>
        <mxCell id="cavRAeg5umnz87ZM6FMu-140" value="活动是否已经过期" style="rhombus;whiteSpace=wrap;html=1;shadow=0;fontFamily=Helvetica;fontSize=12;align=center;strokeWidth=1;spacing=6;spacingTop=-4;" vertex="1" parent="WIyWlLk6GJQsqaUBKTNV-1">
          <mxGeometry x="1890" y="1100" width="100" height="80" as="geometry" />
        </mxCell>
        <mxCell id="cavRAeg5umnz87ZM6FMu-141" value="结束" style="rounded=1;whiteSpace=wrap;html=1;fontSize=12;glass=0;strokeWidth=1;shadow=0;" vertex="1" parent="WIyWlLk6GJQsqaUBKTNV-1">
          <mxGeometry x="2100" y="1120" width="120" height="40" as="geometry" />
        </mxCell>
        <mxCell id="cavRAeg5umnz87ZM6FMu-146" value="是" style="edgeStyle=orthogonalEdgeStyle;rounded=0;orthogonalLoop=1;jettySize=auto;html=1;exitX=1;exitY=0.5;exitDx=0;exitDy=0;entryX=0;entryY=0.5;entryDx=0;entryDy=0;" edge="1" parent="WIyWlLk6GJQsqaUBKTNV-1" source="cavRAeg5umnz87ZM6FMu-143" target="cavRAeg5umnz87ZM6FMu-145">
          <mxGeometry relative="1" as="geometry" />
        </mxCell>
        <mxCell id="cavRAeg5umnz87ZM6FMu-148" value="否" style="edgeStyle=orthogonalEdgeStyle;rounded=0;orthogonalLoop=1;jettySize=auto;html=1;exitX=0.5;exitY=1;exitDx=0;exitDy=0;entryX=0.5;entryY=0;entryDx=0;entryDy=0;" edge="1" parent="WIyWlLk6GJQsqaUBKTNV-1" source="cavRAeg5umnz87ZM6FMu-143" target="cavRAeg5umnz87ZM6FMu-147">
          <mxGeometry relative="1" as="geometry" />
        </mxCell>
        <mxCell id="cavRAeg5umnz87ZM6FMu-143" value="判断是否是订单" style="rhombus;whiteSpace=wrap;html=1;shadow=0;fontFamily=Helvetica;fontSize=12;align=center;strokeWidth=1;spacing=6;spacingTop=-4;" vertex="1" parent="WIyWlLk6GJQsqaUBKTNV-1">
          <mxGeometry x="1890" y="1260" width="100" height="80" as="geometry" />
        </mxCell>
        <mxCell id="cavRAeg5umnz87ZM6FMu-151" style="edgeStyle=orthogonalEdgeStyle;rounded=0;orthogonalLoop=1;jettySize=auto;html=1;exitX=0.5;exitY=1;exitDx=0;exitDy=0;" edge="1" parent="WIyWlLk6GJQsqaUBKTNV-1" source="cavRAeg5umnz87ZM6FMu-145">
          <mxGeometry relative="1" as="geometry">
            <mxPoint x="1940" y="1540" as="targetPoint" />
            <Array as="points">
              <mxPoint x="2160" y="1540" />
            </Array>
          </mxGeometry>
        </mxCell>
        <mxCell id="cavRAeg5umnz87ZM6FMu-145" value="time取订单开始时间" style="rounded=1;whiteSpace=wrap;html=1;fontSize=12;glass=0;strokeWidth=1;shadow=0;" vertex="1" parent="WIyWlLk6GJQsqaUBKTNV-1">
          <mxGeometry x="2100" y="1280" width="120" height="40" as="geometry" />
        </mxCell>
        <mxCell id="cavRAeg5umnz87ZM6FMu-150" style="edgeStyle=orthogonalEdgeStyle;rounded=0;orthogonalLoop=1;jettySize=auto;html=1;exitX=0.5;exitY=1;exitDx=0;exitDy=0;entryX=0.5;entryY=0;entryDx=0;entryDy=0;" edge="1" parent="WIyWlLk6GJQsqaUBKTNV-1" source="cavRAeg5umnz87ZM6FMu-147" target="cavRAeg5umnz87ZM6FMu-149">
          <mxGeometry relative="1" as="geometry" />
        </mxCell>
        <mxCell id="cavRAeg5umnz87ZM6FMu-147" value="time取当前时间" style="rounded=1;whiteSpace=wrap;html=1;fontSize=12;glass=0;strokeWidth=1;shadow=0;" vertex="1" parent="WIyWlLk6GJQsqaUBKTNV-1">
          <mxGeometry x="1880" y="1440" width="120" height="40" as="geometry" />
        </mxCell>
        <mxCell id="cavRAeg5umnz87ZM6FMu-153" value="是" style="edgeStyle=orthogonalEdgeStyle;rounded=0;orthogonalLoop=1;jettySize=auto;html=1;exitX=1;exitY=0.5;exitDx=0;exitDy=0;entryX=0;entryY=0.5;entryDx=0;entryDy=0;" edge="1" parent="WIyWlLk6GJQsqaUBKTNV-1" source="cavRAeg5umnz87ZM6FMu-149" target="cavRAeg5umnz87ZM6FMu-152">
          <mxGeometry relative="1" as="geometry" />
        </mxCell>
        <mxCell id="cavRAeg5umnz87ZM6FMu-155" value="否" style="edgeStyle=orthogonalEdgeStyle;rounded=0;orthogonalLoop=1;jettySize=auto;html=1;exitX=0.5;exitY=1;exitDx=0;exitDy=0;entryX=0.5;entryY=0;entryDx=0;entryDy=0;" edge="1" parent="WIyWlLk6GJQsqaUBKTNV-1" source="cavRAeg5umnz87ZM6FMu-149" target="cavRAeg5umnz87ZM6FMu-154">
          <mxGeometry relative="1" as="geometry" />
        </mxCell>
        <mxCell id="cavRAeg5umnz87ZM6FMu-149" value="根据time判断活动分享链接是否过期" style="rhombus;whiteSpace=wrap;html=1;shadow=0;fontFamily=Helvetica;fontSize=12;align=center;strokeWidth=1;spacing=6;spacingTop=-4;" vertex="1" parent="WIyWlLk6GJQsqaUBKTNV-1">
          <mxGeometry x="1890" y="1590" width="100" height="80" as="geometry" />
        </mxCell>
        <mxCell id="cavRAeg5umnz87ZM6FMu-152" value="结束" style="rounded=1;whiteSpace=wrap;html=1;fontSize=12;glass=0;strokeWidth=1;shadow=0;" vertex="1" parent="WIyWlLk6GJQsqaUBKTNV-1">
          <mxGeometry x="2100" y="1610" width="120" height="40" as="geometry" />
        </mxCell>
        <mxCell id="cavRAeg5umnz87ZM6FMu-157" value="是" style="edgeStyle=orthogonalEdgeStyle;rounded=0;orthogonalLoop=1;jettySize=auto;html=1;exitX=1;exitY=0.5;exitDx=0;exitDy=0;entryX=0;entryY=0.5;entryDx=0;entryDy=0;" edge="1" parent="WIyWlLk6GJQsqaUBKTNV-1" source="cavRAeg5umnz87ZM6FMu-154" target="cavRAeg5umnz87ZM6FMu-156">
          <mxGeometry x="-0.641" relative="1" as="geometry">
            <mxPoint as="offset" />
          </mxGeometry>
        </mxCell>
        <mxCell id="cavRAeg5umnz87ZM6FMu-185" value="&lt;pre style=&quot;background-color: #2b2b2b ; color: #a9b7c6 ; font-family: &amp;#34;menlo-regular&amp;#34; , monospace ; font-size: 9.8pt&quot;&gt;&lt;span style=&quot;color: #6a8759&quot;&gt;首单赠送&lt;/span&gt;&lt;/pre&gt;" style="edgeLabel;html=1;align=center;verticalAlign=middle;resizable=0;points=[];" vertex="1" connectable="0" parent="cavRAeg5umnz87ZM6FMu-157">
          <mxGeometry x="0.56" y="3" relative="1" as="geometry">
            <mxPoint as="offset" />
          </mxGeometry>
        </mxCell>
        <mxCell id="cavRAeg5umnz87ZM6FMu-160" value="&lt;pre style=&quot;background-color: #2b2b2b ; color: #a9b7c6 ; font-family: &amp;#34;menlo-regular&amp;#34; , monospace ; font-size: 9.8pt&quot;&gt;&lt;span style=&quot;color: #629755 ; font-style: italic&quot;&gt;分享活动被分享方注册（&lt;/span&gt;分享方送优惠券第二阶段）&lt;/pre&gt;" style="edgeStyle=orthogonalEdgeStyle;rounded=0;orthogonalLoop=1;jettySize=auto;html=1;exitX=0.5;exitY=1;exitDx=0;exitDy=0;entryX=0.5;entryY=0;entryDx=0;entryDy=0;" edge="1" parent="WIyWlLk6GJQsqaUBKTNV-1" source="cavRAeg5umnz87ZM6FMu-154" target="cavRAeg5umnz87ZM6FMu-159">
          <mxGeometry relative="1" as="geometry" />
        </mxCell>
        <mxCell id="cavRAeg5umnz87ZM6FMu-161" value="否" style="edgeLabel;html=1;align=center;verticalAlign=middle;resizable=0;points=[];" vertex="1" connectable="0" parent="cavRAeg5umnz87ZM6FMu-160">
          <mxGeometry x="-0.6714" relative="1" as="geometry">
            <mxPoint as="offset" />
          </mxGeometry>
        </mxCell>
        <mxCell id="cavRAeg5umnz87ZM6FMu-184" style="edgeStyle=orthogonalEdgeStyle;rounded=0;orthogonalLoop=1;jettySize=auto;html=1;exitX=1;exitY=0.5;exitDx=0;exitDy=0;" edge="1" parent="WIyWlLk6GJQsqaUBKTNV-1" source="cavRAeg5umnz87ZM6FMu-154" target="cavRAeg5umnz87ZM6FMu-183">
          <mxGeometry relative="1" as="geometry" />
        </mxCell>
        <mxCell id="cavRAeg5umnz87ZM6FMu-204" value="&lt;pre style=&quot;background-color: #2b2b2b ; color: #a9b7c6 ; font-family: &amp;#34;menlo-regular&amp;#34; , monospace ; font-size: 9.8pt&quot;&gt;&lt;span style=&quot;color: #629755 ; font-style: italic&quot;&gt;分享方送优惠券第三阶段&lt;/span&gt;&lt;/pre&gt;" style="edgeLabel;html=1;align=center;verticalAlign=middle;resizable=0;points=[];" vertex="1" connectable="0" parent="cavRAeg5umnz87ZM6FMu-184">
          <mxGeometry x="0.5442" relative="1" as="geometry">
            <mxPoint as="offset" />
          </mxGeometry>
        </mxCell>
        <mxCell id="cavRAeg5umnz87ZM6FMu-154" value="判断是否是订单" style="rhombus;whiteSpace=wrap;html=1;shadow=0;fontFamily=Helvetica;fontSize=12;align=center;strokeWidth=1;spacing=6;spacingTop=-4;" vertex="1" parent="WIyWlLk6GJQsqaUBKTNV-1">
          <mxGeometry x="1890" y="1760" width="100" height="80" as="geometry" />
        </mxCell>
        <mxCell id="cavRAeg5umnz87ZM6FMu-187" style="edgeStyle=orthogonalEdgeStyle;rounded=0;orthogonalLoop=1;jettySize=auto;html=1;exitX=0.5;exitY=1;exitDx=0;exitDy=0;entryX=0.5;entryY=0;entryDx=0;entryDy=0;" edge="1" parent="WIyWlLk6GJQsqaUBKTNV-1" source="cavRAeg5umnz87ZM6FMu-156" target="cavRAeg5umnz87ZM6FMu-186">
          <mxGeometry relative="1" as="geometry" />
        </mxCell>
        <mxCell id="cavRAeg5umnz87ZM6FMu-156" value="获取用户未取消订单数量" style="rounded=1;whiteSpace=wrap;html=1;fontSize=12;glass=0;strokeWidth=1;shadow=0;" vertex="1" parent="WIyWlLk6GJQsqaUBKTNV-1">
          <mxGeometry x="2800" y="1700" width="120" height="40" as="geometry" />
        </mxCell>
        <mxCell id="cavRAeg5umnz87ZM6FMu-163" style="edgeStyle=orthogonalEdgeStyle;rounded=0;orthogonalLoop=1;jettySize=auto;html=1;exitX=0.5;exitY=1;exitDx=0;exitDy=0;entryX=0.5;entryY=0;entryDx=0;entryDy=0;" edge="1" parent="WIyWlLk6GJQsqaUBKTNV-1" source="cavRAeg5umnz87ZM6FMu-159" target="cavRAeg5umnz87ZM6FMu-162">
          <mxGeometry relative="1" as="geometry" />
        </mxCell>
        <mxCell id="cavRAeg5umnz87ZM6FMu-159" value="&lt;meta charset=&quot;utf-8&quot;&gt;&lt;span style=&quot;color: rgb(0, 0, 0); font-family: helvetica; font-size: 12px; font-style: normal; font-weight: 400; letter-spacing: normal; text-align: center; text-indent: 0px; text-transform: none; word-spacing: 0px; background-color: rgb(248, 249, 250); display: inline; float: none;&quot;&gt;查询分享用户当日分享次数&lt;/span&gt;" style="rounded=1;whiteSpace=wrap;html=1;fontSize=12;glass=0;strokeWidth=1;shadow=0;" vertex="1" parent="WIyWlLk6GJQsqaUBKTNV-1">
          <mxGeometry x="1880" y="1980" width="120" height="40" as="geometry" />
        </mxCell>
        <mxCell id="cavRAeg5umnz87ZM6FMu-165" value="是" style="edgeStyle=orthogonalEdgeStyle;rounded=0;orthogonalLoop=1;jettySize=auto;html=1;exitX=1;exitY=0.5;exitDx=0;exitDy=0;" edge="1" parent="WIyWlLk6GJQsqaUBKTNV-1" source="cavRAeg5umnz87ZM6FMu-162" target="cavRAeg5umnz87ZM6FMu-164">
          <mxGeometry relative="1" as="geometry" />
        </mxCell>
        <mxCell id="cavRAeg5umnz87ZM6FMu-167" value="否" style="edgeStyle=orthogonalEdgeStyle;rounded=0;orthogonalLoop=1;jettySize=auto;html=1;exitX=0.5;exitY=1;exitDx=0;exitDy=0;entryX=0.5;entryY=0;entryDx=0;entryDy=0;" edge="1" parent="WIyWlLk6GJQsqaUBKTNV-1" source="cavRAeg5umnz87ZM6FMu-162" target="cavRAeg5umnz87ZM6FMu-166">
          <mxGeometry relative="1" as="geometry" />
        </mxCell>
        <mxCell id="cavRAeg5umnz87ZM6FMu-162" value="分享次数是否超过限制" style="rhombus;whiteSpace=wrap;html=1;shadow=0;fontFamily=Helvetica;fontSize=12;align=center;strokeWidth=1;spacing=6;spacingTop=-4;" vertex="1" parent="WIyWlLk6GJQsqaUBKTNV-1">
          <mxGeometry x="1890" y="2120" width="100" height="80" as="geometry" />
        </mxCell>
        <mxCell id="cavRAeg5umnz87ZM6FMu-164" value="结束" style="rounded=1;whiteSpace=wrap;html=1;fontSize=12;glass=0;strokeWidth=1;shadow=0;" vertex="1" parent="WIyWlLk6GJQsqaUBKTNV-1">
          <mxGeometry x="2100" y="2140" width="120" height="40" as="geometry" />
        </mxCell>
        <mxCell id="cavRAeg5umnz87ZM6FMu-169" style="edgeStyle=orthogonalEdgeStyle;rounded=0;orthogonalLoop=1;jettySize=auto;html=1;exitX=0.5;exitY=1;exitDx=0;exitDy=0;entryX=0.5;entryY=0;entryDx=0;entryDy=0;" edge="1" parent="WIyWlLk6GJQsqaUBKTNV-1" source="cavRAeg5umnz87ZM6FMu-166">
          <mxGeometry relative="1" as="geometry">
            <mxPoint x="1940" y="2470" as="targetPoint" />
          </mxGeometry>
        </mxCell>
        <mxCell id="cavRAeg5umnz87ZM6FMu-166" value="&lt;font face=&quot;helvetica&quot;&gt;插入活动分享信息&lt;/font&gt;" style="rounded=1;whiteSpace=wrap;html=1;fontSize=12;glass=0;strokeWidth=1;shadow=0;" vertex="1" parent="WIyWlLk6GJQsqaUBKTNV-1">
          <mxGeometry x="1880" y="2310" width="120" height="40" as="geometry" />
        </mxCell>
        <mxCell id="cavRAeg5umnz87ZM6FMu-171" style="edgeStyle=orthogonalEdgeStyle;rounded=0;orthogonalLoop=1;jettySize=auto;html=1;exitX=0.5;exitY=1;exitDx=0;exitDy=0;entryX=0.5;entryY=0;entryDx=0;entryDy=0;" edge="1" parent="WIyWlLk6GJQsqaUBKTNV-1" source="cavRAeg5umnz87ZM6FMu-172" target="cavRAeg5umnz87ZM6FMu-174">
          <mxGeometry relative="1" as="geometry" />
        </mxCell>
        <mxCell id="cavRAeg5umnz87ZM6FMu-172" value="获取活动绑定的优惠券列表" style="rounded=1;whiteSpace=wrap;html=1;fontSize=12;glass=0;strokeWidth=1;shadow=0;" vertex="1" parent="WIyWlLk6GJQsqaUBKTNV-1">
          <mxGeometry x="1880" y="2470" width="120" height="40" as="geometry" />
        </mxCell>
        <mxCell id="cavRAeg5umnz87ZM6FMu-173" style="edgeStyle=orthogonalEdgeStyle;rounded=0;orthogonalLoop=1;jettySize=auto;html=1;exitX=0.5;exitY=1;exitDx=0;exitDy=0;entryX=0.5;entryY=0;entryDx=0;entryDy=0;" edge="1" parent="WIyWlLk6GJQsqaUBKTNV-1" source="cavRAeg5umnz87ZM6FMu-174" target="cavRAeg5umnz87ZM6FMu-179">
          <mxGeometry relative="1" as="geometry" />
        </mxCell>
        <mxCell id="cavRAeg5umnz87ZM6FMu-174" value="遍历优惠券列表并根据优惠券发放类型和用户是否为新用户过滤优惠券列表" style="rounded=1;whiteSpace=wrap;html=1;fontSize=12;glass=0;strokeWidth=1;shadow=0;" vertex="1" parent="WIyWlLk6GJQsqaUBKTNV-1">
          <mxGeometry x="1880" y="2590" width="120" height="40" as="geometry" />
        </mxCell>
        <mxCell id="cavRAeg5umnz87ZM6FMu-175" style="edgeStyle=orthogonalEdgeStyle;rounded=0;orthogonalLoop=1;jettySize=auto;html=1;exitX=1;exitY=0.5;exitDx=0;exitDy=0;entryX=0;entryY=0.5;entryDx=0;entryDy=0;" edge="1" parent="WIyWlLk6GJQsqaUBKTNV-1" source="cavRAeg5umnz87ZM6FMu-179" target="cavRAeg5umnz87ZM6FMu-180">
          <mxGeometry relative="1" as="geometry" />
        </mxCell>
        <mxCell id="cavRAeg5umnz87ZM6FMu-176" value="是" style="edgeLabel;html=1;align=center;verticalAlign=middle;resizable=0;points=[];" vertex="1" connectable="0" parent="cavRAeg5umnz87ZM6FMu-175">
          <mxGeometry x="-0.12" relative="1" as="geometry">
            <mxPoint y="1" as="offset" />
          </mxGeometry>
        </mxCell>
        <mxCell id="cavRAeg5umnz87ZM6FMu-177" style="edgeStyle=orthogonalEdgeStyle;rounded=0;orthogonalLoop=1;jettySize=auto;html=1;exitX=0.5;exitY=1;exitDx=0;exitDy=0;entryX=0.5;entryY=0;entryDx=0;entryDy=0;" edge="1" parent="WIyWlLk6GJQsqaUBKTNV-1" source="cavRAeg5umnz87ZM6FMu-179" target="cavRAeg5umnz87ZM6FMu-181">
          <mxGeometry relative="1" as="geometry" />
        </mxCell>
        <mxCell id="cavRAeg5umnz87ZM6FMu-178" value="否" style="edgeLabel;html=1;align=center;verticalAlign=middle;resizable=0;points=[];" vertex="1" connectable="0" parent="cavRAeg5umnz87ZM6FMu-177">
          <mxGeometry x="-0.0286" relative="1" as="geometry">
            <mxPoint as="offset" />
          </mxGeometry>
        </mxCell>
        <mxCell id="cavRAeg5umnz87ZM6FMu-179" value="过滤之后优惠券列表是否为空" style="rhombus;whiteSpace=wrap;html=1;shadow=0;fontFamily=Helvetica;fontSize=12;align=center;strokeWidth=1;spacing=6;spacingTop=-4;" vertex="1" parent="WIyWlLk6GJQsqaUBKTNV-1">
          <mxGeometry x="1890" y="2730" width="100" height="80" as="geometry" />
        </mxCell>
        <mxCell id="cavRAeg5umnz87ZM6FMu-180" value="结束" style="rounded=1;whiteSpace=wrap;html=1;fontSize=12;glass=0;strokeWidth=1;shadow=0;" vertex="1" parent="WIyWlLk6GJQsqaUBKTNV-1">
          <mxGeometry x="2100" y="2750" width="120" height="40" as="geometry" />
        </mxCell>
        <mxCell id="cavRAeg5umnz87ZM6FMu-181" value="发送发券消息" style="rounded=1;whiteSpace=wrap;html=1;fontSize=12;glass=0;strokeWidth=1;shadow=0;" vertex="1" parent="WIyWlLk6GJQsqaUBKTNV-1">
          <mxGeometry x="1880" y="2900" width="120" height="40" as="geometry" />
        </mxCell>
        <mxCell id="cavRAeg5umnz87ZM6FMu-212" style="edgeStyle=orthogonalEdgeStyle;rounded=0;orthogonalLoop=1;jettySize=auto;html=1;exitX=0.5;exitY=1;exitDx=0;exitDy=0;entryX=0.5;entryY=0;entryDx=0;entryDy=0;" edge="1" parent="WIyWlLk6GJQsqaUBKTNV-1" source="cavRAeg5umnz87ZM6FMu-183" target="cavRAeg5umnz87ZM6FMu-209">
          <mxGeometry relative="1" as="geometry" />
        </mxCell>
        <mxCell id="cavRAeg5umnz87ZM6FMu-183" value="&lt;span style=&quot;font-family: &amp;#34;helvetica&amp;#34;&quot;&gt;查询分享用户当日分享次数&lt;/span&gt;" style="rounded=1;whiteSpace=wrap;html=1;fontSize=12;glass=0;strokeWidth=1;shadow=0;" vertex="1" parent="WIyWlLk6GJQsqaUBKTNV-1">
          <mxGeometry x="2360" y="1840" width="120" height="40" as="geometry" />
        </mxCell>
        <mxCell id="cavRAeg5umnz87ZM6FMu-189" value="是" style="edgeStyle=orthogonalEdgeStyle;rounded=0;orthogonalLoop=1;jettySize=auto;html=1;exitX=1;exitY=0.5;exitDx=0;exitDy=0;" edge="1" parent="WIyWlLk6GJQsqaUBKTNV-1" source="cavRAeg5umnz87ZM6FMu-186" target="cavRAeg5umnz87ZM6FMu-188">
          <mxGeometry relative="1" as="geometry" />
        </mxCell>
        <mxCell id="cavRAeg5umnz87ZM6FMu-202" style="edgeStyle=orthogonalEdgeStyle;rounded=0;orthogonalLoop=1;jettySize=auto;html=1;exitX=0.5;exitY=1;exitDx=0;exitDy=0;entryX=0.5;entryY=0;entryDx=0;entryDy=0;" edge="1" parent="WIyWlLk6GJQsqaUBKTNV-1" source="cavRAeg5umnz87ZM6FMu-186" target="cavRAeg5umnz87ZM6FMu-192">
          <mxGeometry relative="1" as="geometry" />
        </mxCell>
        <mxCell id="cavRAeg5umnz87ZM6FMu-203" value="否" style="edgeLabel;html=1;align=center;verticalAlign=middle;resizable=0;points=[];" vertex="1" connectable="0" parent="cavRAeg5umnz87ZM6FMu-202">
          <mxGeometry x="-0.175" relative="1" as="geometry">
            <mxPoint as="offset" />
          </mxGeometry>
        </mxCell>
        <mxCell id="cavRAeg5umnz87ZM6FMu-186" value="判断数量是否大于1" style="rhombus;whiteSpace=wrap;html=1;shadow=0;fontFamily=Helvetica;fontSize=12;align=center;strokeWidth=1;spacing=6;spacingTop=-4;" vertex="1" parent="WIyWlLk6GJQsqaUBKTNV-1">
          <mxGeometry x="2810" y="1860" width="100" height="80" as="geometry" />
        </mxCell>
        <mxCell id="cavRAeg5umnz87ZM6FMu-188" value="结束" style="rounded=1;whiteSpace=wrap;html=1;fontSize=12;glass=0;strokeWidth=1;shadow=0;" vertex="1" parent="WIyWlLk6GJQsqaUBKTNV-1">
          <mxGeometry x="3020" y="1880" width="120" height="40" as="geometry" />
        </mxCell>
        <mxCell id="cavRAeg5umnz87ZM6FMu-191" style="edgeStyle=orthogonalEdgeStyle;rounded=0;orthogonalLoop=1;jettySize=auto;html=1;exitX=0.5;exitY=1;exitDx=0;exitDy=0;entryX=0.5;entryY=0;entryDx=0;entryDy=0;" edge="1" parent="WIyWlLk6GJQsqaUBKTNV-1" source="cavRAeg5umnz87ZM6FMu-192" target="cavRAeg5umnz87ZM6FMu-194">
          <mxGeometry relative="1" as="geometry" />
        </mxCell>
        <mxCell id="cavRAeg5umnz87ZM6FMu-192" value="获取活动绑定的优惠券列表" style="rounded=1;whiteSpace=wrap;html=1;fontSize=12;glass=0;strokeWidth=1;shadow=0;" vertex="1" parent="WIyWlLk6GJQsqaUBKTNV-1">
          <mxGeometry x="2800" y="2020" width="120" height="40" as="geometry" />
        </mxCell>
        <mxCell id="cavRAeg5umnz87ZM6FMu-193" style="edgeStyle=orthogonalEdgeStyle;rounded=0;orthogonalLoop=1;jettySize=auto;html=1;exitX=0.5;exitY=1;exitDx=0;exitDy=0;entryX=0.5;entryY=0;entryDx=0;entryDy=0;" edge="1" parent="WIyWlLk6GJQsqaUBKTNV-1" source="cavRAeg5umnz87ZM6FMu-194" target="cavRAeg5umnz87ZM6FMu-199">
          <mxGeometry relative="1" as="geometry" />
        </mxCell>
        <mxCell id="cavRAeg5umnz87ZM6FMu-194" value="遍历优惠券列表并根据优惠券发放类型和用户是否为新用户过滤优惠券列表" style="rounded=1;whiteSpace=wrap;html=1;fontSize=12;glass=0;strokeWidth=1;shadow=0;" vertex="1" parent="WIyWlLk6GJQsqaUBKTNV-1">
          <mxGeometry x="2800" y="2140" width="120" height="40" as="geometry" />
        </mxCell>
        <mxCell id="cavRAeg5umnz87ZM6FMu-195" style="edgeStyle=orthogonalEdgeStyle;rounded=0;orthogonalLoop=1;jettySize=auto;html=1;exitX=1;exitY=0.5;exitDx=0;exitDy=0;entryX=0;entryY=0.5;entryDx=0;entryDy=0;" edge="1" parent="WIyWlLk6GJQsqaUBKTNV-1" source="cavRAeg5umnz87ZM6FMu-199" target="cavRAeg5umnz87ZM6FMu-200">
          <mxGeometry relative="1" as="geometry" />
        </mxCell>
        <mxCell id="cavRAeg5umnz87ZM6FMu-196" value="是" style="edgeLabel;html=1;align=center;verticalAlign=middle;resizable=0;points=[];" vertex="1" connectable="0" parent="cavRAeg5umnz87ZM6FMu-195">
          <mxGeometry x="-0.12" relative="1" as="geometry">
            <mxPoint y="1" as="offset" />
          </mxGeometry>
        </mxCell>
        <mxCell id="cavRAeg5umnz87ZM6FMu-197" style="edgeStyle=orthogonalEdgeStyle;rounded=0;orthogonalLoop=1;jettySize=auto;html=1;exitX=0.5;exitY=1;exitDx=0;exitDy=0;entryX=0.5;entryY=0;entryDx=0;entryDy=0;" edge="1" parent="WIyWlLk6GJQsqaUBKTNV-1" source="cavRAeg5umnz87ZM6FMu-199" target="cavRAeg5umnz87ZM6FMu-201">
          <mxGeometry relative="1" as="geometry" />
        </mxCell>
        <mxCell id="cavRAeg5umnz87ZM6FMu-198" value="否" style="edgeLabel;html=1;align=center;verticalAlign=middle;resizable=0;points=[];" vertex="1" connectable="0" parent="cavRAeg5umnz87ZM6FMu-197">
          <mxGeometry x="-0.0286" relative="1" as="geometry">
            <mxPoint as="offset" />
          </mxGeometry>
        </mxCell>
        <mxCell id="cavRAeg5umnz87ZM6FMu-199" value="过滤之后优惠券列表是否为空" style="rhombus;whiteSpace=wrap;html=1;shadow=0;fontFamily=Helvetica;fontSize=12;align=center;strokeWidth=1;spacing=6;spacingTop=-4;" vertex="1" parent="WIyWlLk6GJQsqaUBKTNV-1">
          <mxGeometry x="2810" y="2280" width="100" height="80" as="geometry" />
        </mxCell>
        <mxCell id="cavRAeg5umnz87ZM6FMu-200" value="结束" style="rounded=1;whiteSpace=wrap;html=1;fontSize=12;glass=0;strokeWidth=1;shadow=0;" vertex="1" parent="WIyWlLk6GJQsqaUBKTNV-1">
          <mxGeometry x="3020" y="2300" width="120" height="40" as="geometry" />
        </mxCell>
        <mxCell id="cavRAeg5umnz87ZM6FMu-201" value="发送发券消息" style="rounded=1;whiteSpace=wrap;html=1;fontSize=12;glass=0;strokeWidth=1;shadow=0;" vertex="1" parent="WIyWlLk6GJQsqaUBKTNV-1">
          <mxGeometry x="2800" y="2450" width="120" height="40" as="geometry" />
        </mxCell>
        <mxCell id="cavRAeg5umnz87ZM6FMu-207" value="是" style="edgeStyle=orthogonalEdgeStyle;rounded=0;orthogonalLoop=1;jettySize=auto;html=1;exitX=1;exitY=0.5;exitDx=0;exitDy=0;" edge="1" parent="WIyWlLk6GJQsqaUBKTNV-1" source="cavRAeg5umnz87ZM6FMu-209" target="cavRAeg5umnz87ZM6FMu-210">
          <mxGeometry relative="1" as="geometry" />
        </mxCell>
        <mxCell id="cavRAeg5umnz87ZM6FMu-208" value="否" style="edgeStyle=orthogonalEdgeStyle;rounded=0;orthogonalLoop=1;jettySize=auto;html=1;exitX=0.5;exitY=1;exitDx=0;exitDy=0;entryX=0.5;entryY=0;entryDx=0;entryDy=0;" edge="1" parent="WIyWlLk6GJQsqaUBKTNV-1" source="cavRAeg5umnz87ZM6FMu-209">
          <mxGeometry relative="1" as="geometry">
            <mxPoint x="2420" y="2150" as="targetPoint" />
          </mxGeometry>
        </mxCell>
        <mxCell id="cavRAeg5umnz87ZM6FMu-209" value="分享次数是否超过限制" style="rhombus;whiteSpace=wrap;html=1;shadow=0;fontFamily=Helvetica;fontSize=12;align=center;strokeWidth=1;spacing=6;spacingTop=-4;" vertex="1" parent="WIyWlLk6GJQsqaUBKTNV-1">
          <mxGeometry x="2370" y="1960" width="100" height="80" as="geometry" />
        </mxCell>
        <mxCell id="cavRAeg5umnz87ZM6FMu-210" value="结束" style="rounded=1;whiteSpace=wrap;html=1;fontSize=12;glass=0;strokeWidth=1;shadow=0;" vertex="1" parent="WIyWlLk6GJQsqaUBKTNV-1">
          <mxGeometry x="2590" y="1980" width="120" height="40" as="geometry" />
        </mxCell>
        <mxCell id="cavRAeg5umnz87ZM6FMu-213" style="edgeStyle=orthogonalEdgeStyle;rounded=0;orthogonalLoop=1;jettySize=auto;html=1;exitX=0.5;exitY=1;exitDx=0;exitDy=0;entryX=0.5;entryY=0;entryDx=0;entryDy=0;" edge="1" parent="WIyWlLk6GJQsqaUBKTNV-1" source="cavRAeg5umnz87ZM6FMu-214" target="cavRAeg5umnz87ZM6FMu-216">
          <mxGeometry relative="1" as="geometry" />
        </mxCell>
        <mxCell id="cavRAeg5umnz87ZM6FMu-214" value="获取活动绑定的优惠券列表" style="rounded=1;whiteSpace=wrap;html=1;fontSize=12;glass=0;strokeWidth=1;shadow=0;" vertex="1" parent="WIyWlLk6GJQsqaUBKTNV-1">
          <mxGeometry x="2360" y="2150" width="120" height="40" as="geometry" />
        </mxCell>
        <mxCell id="cavRAeg5umnz87ZM6FMu-215" style="edgeStyle=orthogonalEdgeStyle;rounded=0;orthogonalLoop=1;jettySize=auto;html=1;exitX=0.5;exitY=1;exitDx=0;exitDy=0;entryX=0.5;entryY=0;entryDx=0;entryDy=0;" edge="1" parent="WIyWlLk6GJQsqaUBKTNV-1" source="cavRAeg5umnz87ZM6FMu-216" target="cavRAeg5umnz87ZM6FMu-221">
          <mxGeometry relative="1" as="geometry" />
        </mxCell>
        <mxCell id="cavRAeg5umnz87ZM6FMu-216" value="遍历优惠券列表并根据优惠券发放类型和用户是否为新用户过滤优惠券列表" style="rounded=1;whiteSpace=wrap;html=1;fontSize=12;glass=0;strokeWidth=1;shadow=0;" vertex="1" parent="WIyWlLk6GJQsqaUBKTNV-1">
          <mxGeometry x="2360" y="2270" width="120" height="40" as="geometry" />
        </mxCell>
        <mxCell id="cavRAeg5umnz87ZM6FMu-217" style="edgeStyle=orthogonalEdgeStyle;rounded=0;orthogonalLoop=1;jettySize=auto;html=1;exitX=1;exitY=0.5;exitDx=0;exitDy=0;entryX=0;entryY=0.5;entryDx=0;entryDy=0;" edge="1" parent="WIyWlLk6GJQsqaUBKTNV-1" source="cavRAeg5umnz87ZM6FMu-221" target="cavRAeg5umnz87ZM6FMu-222">
          <mxGeometry relative="1" as="geometry" />
        </mxCell>
        <mxCell id="cavRAeg5umnz87ZM6FMu-218" value="是" style="edgeLabel;html=1;align=center;verticalAlign=middle;resizable=0;points=[];" vertex="1" connectable="0" parent="cavRAeg5umnz87ZM6FMu-217">
          <mxGeometry x="-0.12" relative="1" as="geometry">
            <mxPoint y="1" as="offset" />
          </mxGeometry>
        </mxCell>
        <mxCell id="cavRAeg5umnz87ZM6FMu-219" style="edgeStyle=orthogonalEdgeStyle;rounded=0;orthogonalLoop=1;jettySize=auto;html=1;exitX=0.5;exitY=1;exitDx=0;exitDy=0;entryX=0.5;entryY=0;entryDx=0;entryDy=0;" edge="1" parent="WIyWlLk6GJQsqaUBKTNV-1" source="cavRAeg5umnz87ZM6FMu-221" target="cavRAeg5umnz87ZM6FMu-223">
          <mxGeometry relative="1" as="geometry" />
        </mxCell>
        <mxCell id="cavRAeg5umnz87ZM6FMu-220" value="否" style="edgeLabel;html=1;align=center;verticalAlign=middle;resizable=0;points=[];" vertex="1" connectable="0" parent="cavRAeg5umnz87ZM6FMu-219">
          <mxGeometry x="-0.0286" relative="1" as="geometry">
            <mxPoint as="offset" />
          </mxGeometry>
        </mxCell>
        <mxCell id="cavRAeg5umnz87ZM6FMu-221" value="过滤之后优惠券列表是否为空" style="rhombus;whiteSpace=wrap;html=1;shadow=0;fontFamily=Helvetica;fontSize=12;align=center;strokeWidth=1;spacing=6;spacingTop=-4;" vertex="1" parent="WIyWlLk6GJQsqaUBKTNV-1">
          <mxGeometry x="2370" y="2410" width="100" height="80" as="geometry" />
        </mxCell>
        <mxCell id="cavRAeg5umnz87ZM6FMu-222" value="结束" style="rounded=1;whiteSpace=wrap;html=1;fontSize=12;glass=0;strokeWidth=1;shadow=0;" vertex="1" parent="WIyWlLk6GJQsqaUBKTNV-1">
          <mxGeometry x="2580" y="2430" width="120" height="40" as="geometry" />
        </mxCell>
        <mxCell id="cavRAeg5umnz87ZM6FMu-223" value="发送发券消息" style="rounded=1;whiteSpace=wrap;html=1;fontSize=12;glass=0;strokeWidth=1;shadow=0;" vertex="1" parent="WIyWlLk6GJQsqaUBKTNV-1">
          <mxGeometry x="2360" y="2580" width="120" height="40" as="geometry" />
        </mxCell>
        <mxCell id="cavRAeg5umnz87ZM6FMu-224" style="edgeStyle=orthogonalEdgeStyle;rounded=0;orthogonalLoop=1;jettySize=auto;html=1;exitX=0.5;exitY=1;exitDx=0;exitDy=0;" edge="1" parent="WIyWlLk6GJQsqaUBKTNV-1" source="cavRAeg5umnz87ZM6FMu-225" target="cavRAeg5umnz87ZM6FMu-229">
          <mxGeometry relative="1" as="geometry" />
        </mxCell>
        <mxCell id="cavRAeg5umnz87ZM6FMu-225" value="&lt;pre style=&quot;background-color: rgb(43 , 43 , 43) ; color: rgb(169 , 183 , 198) ; font-family: , monospace ; font-size: 9.8pt&quot;&gt;&lt;pre style=&quot;font-family: , monospace ; font-size: 9.8pt&quot;&gt;&lt;span style=&quot;color: #629755 ; font-style: italic&quot;&gt;裂变活动（注册时携带分享链接）&lt;/span&gt;&lt;/pre&gt;&lt;/pre&gt;" style="rounded=1;whiteSpace=wrap;html=1;fontSize=12;glass=0;strokeWidth=1;shadow=0;spacing=6;spacingTop=-4;" vertex="1" parent="WIyWlLk6GJQsqaUBKTNV-1">
          <mxGeometry x="3490" y="110" width="120" height="40" as="geometry" />
        </mxCell>
        <mxCell id="cavRAeg5umnz87ZM6FMu-226" value="否" style="edgeStyle=orthogonalEdgeStyle;rounded=0;orthogonalLoop=1;jettySize=auto;html=1;exitX=1;exitY=0.5;exitDx=0;exitDy=0;entryX=0;entryY=0.5;entryDx=0;entryDy=0;" edge="1" parent="WIyWlLk6GJQsqaUBKTNV-1" source="cavRAeg5umnz87ZM6FMu-229" target="cavRAeg5umnz87ZM6FMu-230">
          <mxGeometry relative="1" as="geometry" />
        </mxCell>
        <mxCell id="cavRAeg5umnz87ZM6FMu-227" style="edgeStyle=orthogonalEdgeStyle;rounded=0;orthogonalLoop=1;jettySize=auto;html=1;exitX=0.5;exitY=1;exitDx=0;exitDy=0;" edge="1" parent="WIyWlLk6GJQsqaUBKTNV-1" source="cavRAeg5umnz87ZM6FMu-229" target="cavRAeg5umnz87ZM6FMu-233">
          <mxGeometry relative="1" as="geometry" />
        </mxCell>
        <mxCell id="cavRAeg5umnz87ZM6FMu-228" value="是" style="edgeLabel;html=1;align=center;verticalAlign=middle;resizable=0;points=[];" vertex="1" connectable="0" parent="cavRAeg5umnz87ZM6FMu-227">
          <mxGeometry x="-0.1571" y="-2" relative="1" as="geometry">
            <mxPoint as="offset" />
          </mxGeometry>
        </mxCell>
        <mxCell id="cavRAeg5umnz87ZM6FMu-229" value="分享活动链接是否存在" style="rhombus;whiteSpace=wrap;html=1;shadow=0;fontFamily=Helvetica;fontSize=12;align=center;strokeWidth=1;spacing=6;spacingTop=-4;" vertex="1" parent="WIyWlLk6GJQsqaUBKTNV-1">
          <mxGeometry x="3500" y="240" width="100" height="80" as="geometry" />
        </mxCell>
        <mxCell id="cavRAeg5umnz87ZM6FMu-230" value="结束" style="rounded=1;whiteSpace=wrap;html=1;fontSize=12;glass=0;strokeWidth=1;shadow=0;" vertex="1" parent="WIyWlLk6GJQsqaUBKTNV-1">
          <mxGeometry x="3710" y="260" width="120" height="40" as="geometry" />
        </mxCell>
        <mxCell id="cavRAeg5umnz87ZM6FMu-231" value="否" style="edgeStyle=orthogonalEdgeStyle;rounded=0;orthogonalLoop=1;jettySize=auto;html=1;exitX=1;exitY=0.5;exitDx=0;exitDy=0;entryX=0;entryY=0.5;entryDx=0;entryDy=0;" edge="1" parent="WIyWlLk6GJQsqaUBKTNV-1" source="cavRAeg5umnz87ZM6FMu-233" target="cavRAeg5umnz87ZM6FMu-234">
          <mxGeometry relative="1" as="geometry" />
        </mxCell>
        <mxCell id="cavRAeg5umnz87ZM6FMu-232" value="是" style="edgeStyle=orthogonalEdgeStyle;rounded=0;orthogonalLoop=1;jettySize=auto;html=1;exitX=0.5;exitY=1;exitDx=0;exitDy=0;entryX=0.5;entryY=0;entryDx=0;entryDy=0;" edge="1" parent="WIyWlLk6GJQsqaUBKTNV-1" source="cavRAeg5umnz87ZM6FMu-233" target="cavRAeg5umnz87ZM6FMu-237">
          <mxGeometry relative="1" as="geometry" />
        </mxCell>
        <mxCell id="cavRAeg5umnz87ZM6FMu-233" value="判断分享链接公司信息和被邀请方公司信息是否一致" style="rhombus;whiteSpace=wrap;html=1;shadow=0;fontFamily=Helvetica;fontSize=12;align=center;strokeWidth=1;spacing=6;spacingTop=-4;" vertex="1" parent="WIyWlLk6GJQsqaUBKTNV-1">
          <mxGeometry x="3500" y="390" width="100" height="80" as="geometry" />
        </mxCell>
        <mxCell id="cavRAeg5umnz87ZM6FMu-234" value="结束" style="rounded=1;whiteSpace=wrap;html=1;fontSize=12;glass=0;strokeWidth=1;shadow=0;" vertex="1" parent="WIyWlLk6GJQsqaUBKTNV-1">
          <mxGeometry x="3710" y="410" width="120" height="40" as="geometry" />
        </mxCell>
        <mxCell id="cavRAeg5umnz87ZM6FMu-235" value="是" style="edgeStyle=orthogonalEdgeStyle;rounded=0;orthogonalLoop=1;jettySize=auto;html=1;exitX=1;exitY=0.5;exitDx=0;exitDy=0;entryX=0;entryY=0.5;entryDx=0;entryDy=0;" edge="1" parent="WIyWlLk6GJQsqaUBKTNV-1" source="cavRAeg5umnz87ZM6FMu-237" target="cavRAeg5umnz87ZM6FMu-238">
          <mxGeometry relative="1" as="geometry" />
        </mxCell>
        <mxCell id="cavRAeg5umnz87ZM6FMu-236" value="否" style="edgeStyle=orthogonalEdgeStyle;rounded=0;orthogonalLoop=1;jettySize=auto;html=1;exitX=0.5;exitY=1;exitDx=0;exitDy=0;entryX=0.5;entryY=0;entryDx=0;entryDy=0;" edge="1" parent="WIyWlLk6GJQsqaUBKTNV-1" source="cavRAeg5umnz87ZM6FMu-237" target="cavRAeg5umnz87ZM6FMu-240">
          <mxGeometry relative="1" as="geometry" />
        </mxCell>
        <mxCell id="cavRAeg5umnz87ZM6FMu-237" value="判断邀请人和被邀请人是否是同一个人" style="rhombus;whiteSpace=wrap;html=1;shadow=0;fontFamily=Helvetica;fontSize=12;align=center;strokeWidth=1;spacing=6;spacingTop=-4;" vertex="1" parent="WIyWlLk6GJQsqaUBKTNV-1">
          <mxGeometry x="3500" y="550" width="100" height="80" as="geometry" />
        </mxCell>
        <mxCell id="cavRAeg5umnz87ZM6FMu-238" value="结束" style="rounded=1;whiteSpace=wrap;html=1;fontSize=12;glass=0;strokeWidth=1;shadow=0;" vertex="1" parent="WIyWlLk6GJQsqaUBKTNV-1">
          <mxGeometry x="3710" y="570" width="120" height="40" as="geometry" />
        </mxCell>
        <mxCell id="cavRAeg5umnz87ZM6FMu-239" style="edgeStyle=orthogonalEdgeStyle;rounded=0;orthogonalLoop=1;jettySize=auto;html=1;exitX=0.5;exitY=1;exitDx=0;exitDy=0;entryX=0.5;entryY=0;entryDx=0;entryDy=0;" edge="1" parent="WIyWlLk6GJQsqaUBKTNV-1" source="cavRAeg5umnz87ZM6FMu-240" target="cavRAeg5umnz87ZM6FMu-244">
          <mxGeometry relative="1" as="geometry" />
        </mxCell>
        <mxCell id="cavRAeg5umnz87ZM6FMu-240" value="获取活动信息" style="rounded=1;whiteSpace=wrap;html=1;fontSize=12;glass=0;strokeWidth=1;shadow=0;" vertex="1" parent="WIyWlLk6GJQsqaUBKTNV-1">
          <mxGeometry x="3490" y="710" width="120" height="40" as="geometry" />
        </mxCell>
        <mxCell id="cavRAeg5umnz87ZM6FMu-241" value="否" style="edgeStyle=orthogonalEdgeStyle;rounded=0;orthogonalLoop=1;jettySize=auto;html=1;exitX=1;exitY=0.5;exitDx=0;exitDy=0;entryX=0;entryY=0.5;entryDx=0;entryDy=0;" edge="1" parent="WIyWlLk6GJQsqaUBKTNV-1" source="cavRAeg5umnz87ZM6FMu-244" target="cavRAeg5umnz87ZM6FMu-245">
          <mxGeometry relative="1" as="geometry" />
        </mxCell>
        <mxCell id="cavRAeg5umnz87ZM6FMu-242" style="edgeStyle=orthogonalEdgeStyle;rounded=0;orthogonalLoop=1;jettySize=auto;html=1;exitX=0.5;exitY=1;exitDx=0;exitDy=0;entryX=0.5;entryY=0;entryDx=0;entryDy=0;" edge="1" parent="WIyWlLk6GJQsqaUBKTNV-1" source="cavRAeg5umnz87ZM6FMu-244" target="cavRAeg5umnz87ZM6FMu-248">
          <mxGeometry relative="1" as="geometry" />
        </mxCell>
        <mxCell id="cavRAeg5umnz87ZM6FMu-243" value="是" style="edgeLabel;html=1;align=center;verticalAlign=middle;resizable=0;points=[];" vertex="1" connectable="0" parent="cavRAeg5umnz87ZM6FMu-242">
          <mxGeometry x="-0.075" y="2" relative="1" as="geometry">
            <mxPoint as="offset" />
          </mxGeometry>
        </mxCell>
        <mxCell id="cavRAeg5umnz87ZM6FMu-244" value="活动是否存在" style="rhombus;whiteSpace=wrap;html=1;shadow=0;fontFamily=Helvetica;fontSize=12;align=center;strokeWidth=1;spacing=6;spacingTop=-4;" vertex="1" parent="WIyWlLk6GJQsqaUBKTNV-1">
          <mxGeometry x="3500" y="820" width="100" height="80" as="geometry" />
        </mxCell>
        <mxCell id="cavRAeg5umnz87ZM6FMu-245" value="结束" style="rounded=1;whiteSpace=wrap;html=1;fontSize=12;glass=0;strokeWidth=1;shadow=0;" vertex="1" parent="WIyWlLk6GJQsqaUBKTNV-1">
          <mxGeometry x="3710" y="840" width="120" height="40" as="geometry" />
        </mxCell>
        <mxCell id="cavRAeg5umnz87ZM6FMu-246" value="否" style="edgeStyle=orthogonalEdgeStyle;rounded=0;orthogonalLoop=1;jettySize=auto;html=1;exitX=1;exitY=0.5;exitDx=0;exitDy=0;" edge="1" parent="WIyWlLk6GJQsqaUBKTNV-1" source="cavRAeg5umnz87ZM6FMu-248" target="cavRAeg5umnz87ZM6FMu-249">
          <mxGeometry relative="1" as="geometry" />
        </mxCell>
        <mxCell id="cavRAeg5umnz87ZM6FMu-247" value="是" style="edgeStyle=orthogonalEdgeStyle;rounded=0;orthogonalLoop=1;jettySize=auto;html=1;exitX=0.5;exitY=1;exitDx=0;exitDy=0;" edge="1" parent="WIyWlLk6GJQsqaUBKTNV-1" source="cavRAeg5umnz87ZM6FMu-248" target="cavRAeg5umnz87ZM6FMu-251">
          <mxGeometry relative="1" as="geometry" />
        </mxCell>
        <mxCell id="cavRAeg5umnz87ZM6FMu-248" value="活动是否已经开始" style="rhombus;whiteSpace=wrap;html=1;shadow=0;fontFamily=Helvetica;fontSize=12;align=center;strokeWidth=1;spacing=6;spacingTop=-4;" vertex="1" parent="WIyWlLk6GJQsqaUBKTNV-1">
          <mxGeometry x="3500" y="980" width="100" height="80" as="geometry" />
        </mxCell>
        <mxCell id="cavRAeg5umnz87ZM6FMu-249" value="结束" style="rounded=1;whiteSpace=wrap;html=1;fontSize=12;glass=0;strokeWidth=1;shadow=0;" vertex="1" parent="WIyWlLk6GJQsqaUBKTNV-1">
          <mxGeometry x="3710" y="1000" width="120" height="40" as="geometry" />
        </mxCell>
        <mxCell id="cavRAeg5umnz87ZM6FMu-250" value="是" style="edgeStyle=orthogonalEdgeStyle;rounded=0;orthogonalLoop=1;jettySize=auto;html=1;exitX=1;exitY=0.5;exitDx=0;exitDy=0;entryX=0;entryY=0.5;entryDx=0;entryDy=0;" edge="1" parent="WIyWlLk6GJQsqaUBKTNV-1" source="cavRAeg5umnz87ZM6FMu-251" target="cavRAeg5umnz87ZM6FMu-252">
          <mxGeometry relative="1" as="geometry" />
        </mxCell>
        <mxCell id="cavRAeg5umnz87ZM6FMu-254" style="edgeStyle=orthogonalEdgeStyle;rounded=0;orthogonalLoop=1;jettySize=auto;html=1;exitX=0.5;exitY=1;exitDx=0;exitDy=0;entryX=0.5;entryY=0;entryDx=0;entryDy=0;" edge="1" parent="WIyWlLk6GJQsqaUBKTNV-1" source="cavRAeg5umnz87ZM6FMu-251" target="cavRAeg5umnz87ZM6FMu-253">
          <mxGeometry relative="1" as="geometry" />
        </mxCell>
        <mxCell id="cavRAeg5umnz87ZM6FMu-251" value="活动是否已经过期" style="rhombus;whiteSpace=wrap;html=1;shadow=0;fontFamily=Helvetica;fontSize=12;align=center;strokeWidth=1;spacing=6;spacingTop=-4;" vertex="1" parent="WIyWlLk6GJQsqaUBKTNV-1">
          <mxGeometry x="3500" y="1150" width="100" height="80" as="geometry" />
        </mxCell>
        <mxCell id="cavRAeg5umnz87ZM6FMu-252" value="结束" style="rounded=1;whiteSpace=wrap;html=1;fontSize=12;glass=0;strokeWidth=1;shadow=0;" vertex="1" parent="WIyWlLk6GJQsqaUBKTNV-1">
          <mxGeometry x="3710" y="1170" width="120" height="40" as="geometry" />
        </mxCell>
        <mxCell id="cavRAeg5umnz87ZM6FMu-256" value="是" style="edgeStyle=orthogonalEdgeStyle;rounded=0;orthogonalLoop=1;jettySize=auto;html=1;exitX=1;exitY=0.5;exitDx=0;exitDy=0;entryX=0;entryY=0.5;entryDx=0;entryDy=0;" edge="1" parent="WIyWlLk6GJQsqaUBKTNV-1" source="cavRAeg5umnz87ZM6FMu-253" target="cavRAeg5umnz87ZM6FMu-255">
          <mxGeometry relative="1" as="geometry" />
        </mxCell>
        <mxCell id="cavRAeg5umnz87ZM6FMu-258" style="edgeStyle=orthogonalEdgeStyle;rounded=0;orthogonalLoop=1;jettySize=auto;html=1;exitX=0.5;exitY=1;exitDx=0;exitDy=0;entryX=0.5;entryY=0;entryDx=0;entryDy=0;" edge="1" parent="WIyWlLk6GJQsqaUBKTNV-1" source="cavRAeg5umnz87ZM6FMu-253" target="cavRAeg5umnz87ZM6FMu-257">
          <mxGeometry relative="1" as="geometry" />
        </mxCell>
        <mxCell id="cavRAeg5umnz87ZM6FMu-253" value="判断分享链接是否已过期" style="rhombus;whiteSpace=wrap;html=1;shadow=0;fontFamily=Helvetica;fontSize=12;align=center;strokeWidth=1;spacing=6;spacingTop=-4;" vertex="1" parent="WIyWlLk6GJQsqaUBKTNV-1">
          <mxGeometry x="3500" y="1320" width="100" height="80" as="geometry" />
        </mxCell>
        <mxCell id="cavRAeg5umnz87ZM6FMu-255" value="结束" style="rounded=1;whiteSpace=wrap;html=1;fontSize=12;glass=0;strokeWidth=1;shadow=0;" vertex="1" parent="WIyWlLk6GJQsqaUBKTNV-1">
          <mxGeometry x="3710" y="1340" width="120" height="40" as="geometry" />
        </mxCell>
        <mxCell id="cavRAeg5umnz87ZM6FMu-260" value="否" style="edgeStyle=orthogonalEdgeStyle;rounded=0;orthogonalLoop=1;jettySize=auto;html=1;exitX=1;exitY=0.5;exitDx=0;exitDy=0;entryX=0;entryY=0.5;entryDx=0;entryDy=0;" edge="1" parent="WIyWlLk6GJQsqaUBKTNV-1" source="cavRAeg5umnz87ZM6FMu-257">
          <mxGeometry relative="1" as="geometry">
            <mxPoint x="3710" y="1540" as="targetPoint" />
          </mxGeometry>
        </mxCell>
        <mxCell id="cavRAeg5umnz87ZM6FMu-265" value="是" style="edgeStyle=orthogonalEdgeStyle;rounded=0;orthogonalLoop=1;jettySize=auto;html=1;exitX=0.5;exitY=1;exitDx=0;exitDy=0;" edge="1" parent="WIyWlLk6GJQsqaUBKTNV-1" source="cavRAeg5umnz87ZM6FMu-257">
          <mxGeometry relative="1" as="geometry">
            <mxPoint x="3550" y="2120" as="targetPoint" />
          </mxGeometry>
        </mxCell>
        <mxCell id="cavRAeg5umnz87ZM6FMu-257" value="活动城市是是否包含全国" style="rhombus;whiteSpace=wrap;html=1;shadow=0;fontFamily=Helvetica;fontSize=12;align=center;strokeWidth=1;spacing=6;spacingTop=-4;" vertex="1" parent="WIyWlLk6GJQsqaUBKTNV-1">
          <mxGeometry x="3500" y="1500" width="100" height="80" as="geometry" />
        </mxCell>
        <mxCell id="cavRAeg5umnz87ZM6FMu-263" style="edgeStyle=orthogonalEdgeStyle;rounded=0;orthogonalLoop=1;jettySize=auto;html=1;exitX=1;exitY=0.5;exitDx=0;exitDy=0;" edge="1" parent="WIyWlLk6GJQsqaUBKTNV-1" source="cavRAeg5umnz87ZM6FMu-261" target="cavRAeg5umnz87ZM6FMu-262">
          <mxGeometry relative="1" as="geometry" />
        </mxCell>
        <mxCell id="cavRAeg5umnz87ZM6FMu-264" value="是" style="edgeLabel;html=1;align=center;verticalAlign=middle;resizable=0;points=[];" vertex="1" connectable="0" parent="cavRAeg5umnz87ZM6FMu-263">
          <mxGeometry x="-0.1" y="-1" relative="1" as="geometry">
            <mxPoint as="offset" />
          </mxGeometry>
        </mxCell>
        <mxCell id="cavRAeg5umnz87ZM6FMu-267" style="edgeStyle=orthogonalEdgeStyle;rounded=0;orthogonalLoop=1;jettySize=auto;html=1;exitX=0.5;exitY=1;exitDx=0;exitDy=0;entryX=0.5;entryY=0;entryDx=0;entryDy=0;" edge="1" parent="WIyWlLk6GJQsqaUBKTNV-1" source="cavRAeg5umnz87ZM6FMu-261" target="cavRAeg5umnz87ZM6FMu-266">
          <mxGeometry relative="1" as="geometry" />
        </mxCell>
        <mxCell id="cavRAeg5umnz87ZM6FMu-274" value="否" style="edgeLabel;html=1;align=center;verticalAlign=middle;resizable=0;points=[];" vertex="1" connectable="0" parent="cavRAeg5umnz87ZM6FMu-267">
          <mxGeometry x="-0.1094" y="-1" relative="1" as="geometry">
            <mxPoint x="1" y="1" as="offset" />
          </mxGeometry>
        </mxCell>
        <mxCell id="cavRAeg5umnz87ZM6FMu-261" value="用户经纬度是否为空" style="rhombus;whiteSpace=wrap;html=1;shadow=0;fontFamily=Helvetica;fontSize=12;align=center;strokeWidth=1;spacing=6;spacingTop=-4;" vertex="1" parent="WIyWlLk6GJQsqaUBKTNV-1">
          <mxGeometry x="3710" y="1500" width="100" height="80" as="geometry" />
        </mxCell>
        <mxCell id="cavRAeg5umnz87ZM6FMu-262" value="结束" style="rounded=1;whiteSpace=wrap;html=1;fontSize=12;glass=0;strokeWidth=1;shadow=0;" vertex="1" parent="WIyWlLk6GJQsqaUBKTNV-1">
          <mxGeometry x="3920" y="1520" width="120" height="40" as="geometry" />
        </mxCell>
        <mxCell id="cavRAeg5umnz87ZM6FMu-269" style="edgeStyle=orthogonalEdgeStyle;rounded=0;orthogonalLoop=1;jettySize=auto;html=1;exitX=0.5;exitY=1;exitDx=0;exitDy=0;entryX=0.5;entryY=0;entryDx=0;entryDy=0;" edge="1" parent="WIyWlLk6GJQsqaUBKTNV-1" source="cavRAeg5umnz87ZM6FMu-266" target="cavRAeg5umnz87ZM6FMu-268">
          <mxGeometry relative="1" as="geometry" />
        </mxCell>
        <mxCell id="cavRAeg5umnz87ZM6FMu-266" value="根据经纬度获取城市信息" style="rounded=1;whiteSpace=wrap;html=1;fontSize=12;glass=0;strokeWidth=1;shadow=0;" vertex="1" parent="WIyWlLk6GJQsqaUBKTNV-1">
          <mxGeometry x="3700" y="1660" width="120" height="40" as="geometry" />
        </mxCell>
        <mxCell id="cavRAeg5umnz87ZM6FMu-271" value="否" style="edgeStyle=orthogonalEdgeStyle;rounded=0;orthogonalLoop=1;jettySize=auto;html=1;exitX=1;exitY=0.5;exitDx=0;exitDy=0;entryX=0;entryY=0.5;entryDx=0;entryDy=0;" edge="1" parent="WIyWlLk6GJQsqaUBKTNV-1" source="cavRAeg5umnz87ZM6FMu-268" target="cavRAeg5umnz87ZM6FMu-270">
          <mxGeometry relative="1" as="geometry" />
        </mxCell>
        <mxCell id="cavRAeg5umnz87ZM6FMu-273" value="是" style="edgeStyle=orthogonalEdgeStyle;rounded=0;orthogonalLoop=1;jettySize=auto;html=1;exitX=0.5;exitY=1;exitDx=0;exitDy=0;entryX=0.5;entryY=0;entryDx=0;entryDy=0;" edge="1" parent="WIyWlLk6GJQsqaUBKTNV-1" source="cavRAeg5umnz87ZM6FMu-268" target="cavRAeg5umnz87ZM6FMu-272">
          <mxGeometry relative="1" as="geometry" />
        </mxCell>
        <mxCell id="cavRAeg5umnz87ZM6FMu-268" value="能否获取到城市信息" style="rhombus;whiteSpace=wrap;html=1;shadow=0;fontFamily=Helvetica;fontSize=12;align=center;strokeWidth=1;spacing=6;spacingTop=-4;" vertex="1" parent="WIyWlLk6GJQsqaUBKTNV-1">
          <mxGeometry x="3710" y="1770" width="100" height="80" as="geometry" />
        </mxCell>
        <mxCell id="cavRAeg5umnz87ZM6FMu-270" value="结束" style="rounded=1;whiteSpace=wrap;html=1;fontSize=12;glass=0;strokeWidth=1;shadow=0;" vertex="1" parent="WIyWlLk6GJQsqaUBKTNV-1">
          <mxGeometry x="3920" y="1790" width="120" height="40" as="geometry" />
        </mxCell>
        <mxCell id="cavRAeg5umnz87ZM6FMu-277" value="否" style="edgeStyle=orthogonalEdgeStyle;rounded=0;orthogonalLoop=1;jettySize=auto;html=1;exitX=1;exitY=0.5;exitDx=0;exitDy=0;entryX=0;entryY=0.5;entryDx=0;entryDy=0;" edge="1" parent="WIyWlLk6GJQsqaUBKTNV-1" source="cavRAeg5umnz87ZM6FMu-272" target="cavRAeg5umnz87ZM6FMu-276">
          <mxGeometry relative="1" as="geometry" />
        </mxCell>
        <mxCell id="cavRAeg5umnz87ZM6FMu-281" value="是" style="edgeStyle=orthogonalEdgeStyle;rounded=0;orthogonalLoop=1;jettySize=auto;html=1;exitX=0.5;exitY=1;exitDx=0;exitDy=0;entryX=0.5;entryY=0;entryDx=0;entryDy=0;" edge="1" parent="WIyWlLk6GJQsqaUBKTNV-1" source="cavRAeg5umnz87ZM6FMu-272" target="cavRAeg5umnz87ZM6FMu-280">
          <mxGeometry relative="1" as="geometry" />
        </mxCell>
        <mxCell id="cavRAeg5umnz87ZM6FMu-272" value="活动城市是否包含当前城市" style="rhombus;whiteSpace=wrap;html=1;shadow=0;fontFamily=Helvetica;fontSize=12;align=center;strokeWidth=1;spacing=6;spacingTop=-4;" vertex="1" parent="WIyWlLk6GJQsqaUBKTNV-1">
          <mxGeometry x="3710" y="1940" width="100" height="80" as="geometry" />
        </mxCell>
        <mxCell id="cavRAeg5umnz87ZM6FMu-276" value="结束" style="rounded=1;whiteSpace=wrap;html=1;fontSize=12;glass=0;strokeWidth=1;shadow=0;" vertex="1" parent="WIyWlLk6GJQsqaUBKTNV-1">
          <mxGeometry x="3920" y="1960" width="120" height="40" as="geometry" />
        </mxCell>
        <mxCell id="cavRAeg5umnz87ZM6FMu-284" style="edgeStyle=orthogonalEdgeStyle;rounded=0;orthogonalLoop=1;jettySize=auto;html=1;exitX=0.5;exitY=1;exitDx=0;exitDy=0;entryX=0.5;entryY=0;entryDx=0;entryDy=0;" edge="1" parent="WIyWlLk6GJQsqaUBKTNV-1" source="cavRAeg5umnz87ZM6FMu-280" target="cavRAeg5umnz87ZM6FMu-283">
          <mxGeometry relative="1" as="geometry" />
        </mxCell>
        <mxCell id="cavRAeg5umnz87ZM6FMu-280" value="获取分布式锁" style="rounded=1;whiteSpace=wrap;html=1;fontSize=12;glass=0;strokeWidth=1;shadow=0;" vertex="1" parent="WIyWlLk6GJQsqaUBKTNV-1">
          <mxGeometry x="3490" y="2120" width="120" height="40" as="geometry" />
        </mxCell>
        <mxCell id="cavRAeg5umnz87ZM6FMu-286" style="edgeStyle=orthogonalEdgeStyle;rounded=0;orthogonalLoop=1;jettySize=auto;html=1;exitX=0.5;exitY=1;exitDx=0;exitDy=0;entryX=0.5;entryY=0;entryDx=0;entryDy=0;" edge="1" parent="WIyWlLk6GJQsqaUBKTNV-1" source="cavRAeg5umnz87ZM6FMu-283" target="cavRAeg5umnz87ZM6FMu-285">
          <mxGeometry relative="1" as="geometry" />
        </mxCell>
        <mxCell id="cavRAeg5umnz87ZM6FMu-283" value="根据用户和活动id获取用户参与裂变活动信息" style="rounded=1;whiteSpace=wrap;html=1;fontSize=12;glass=0;strokeWidth=1;shadow=0;" vertex="1" parent="WIyWlLk6GJQsqaUBKTNV-1">
          <mxGeometry x="3490" y="2270" width="120" height="40" as="geometry" />
        </mxCell>
        <mxCell id="cavRAeg5umnz87ZM6FMu-288" value="是" style="edgeStyle=orthogonalEdgeStyle;rounded=0;orthogonalLoop=1;jettySize=auto;html=1;exitX=1;exitY=0.5;exitDx=0;exitDy=0;entryX=0;entryY=0.5;entryDx=0;entryDy=0;" edge="1" parent="WIyWlLk6GJQsqaUBKTNV-1" source="cavRAeg5umnz87ZM6FMu-285" target="cavRAeg5umnz87ZM6FMu-287">
          <mxGeometry relative="1" as="geometry" />
        </mxCell>
        <mxCell id="cavRAeg5umnz87ZM6FMu-290" style="edgeStyle=orthogonalEdgeStyle;rounded=0;orthogonalLoop=1;jettySize=auto;html=1;exitX=0.5;exitY=1;exitDx=0;exitDy=0;entryX=0.5;entryY=0;entryDx=0;entryDy=0;" edge="1" parent="WIyWlLk6GJQsqaUBKTNV-1" source="cavRAeg5umnz87ZM6FMu-285" target="cavRAeg5umnz87ZM6FMu-289">
          <mxGeometry relative="1" as="geometry" />
        </mxCell>
        <mxCell id="cavRAeg5umnz87ZM6FMu-291" value="否" style="edgeLabel;html=1;align=center;verticalAlign=middle;resizable=0;points=[];" vertex="1" connectable="0" parent="cavRAeg5umnz87ZM6FMu-290">
          <mxGeometry x="-0.1389" y="-1" relative="1" as="geometry">
            <mxPoint x="1" as="offset" />
          </mxGeometry>
        </mxCell>
        <mxCell id="cavRAeg5umnz87ZM6FMu-285" value="之前是否存在用户参与裂变活动的信息" style="rhombus;whiteSpace=wrap;html=1;shadow=0;fontFamily=Helvetica;fontSize=12;align=center;strokeWidth=1;spacing=6;spacingTop=-4;" vertex="1" parent="WIyWlLk6GJQsqaUBKTNV-1">
          <mxGeometry x="3500" y="2420" width="100" height="80" as="geometry" />
        </mxCell>
        <mxCell id="cavRAeg5umnz87ZM6FMu-287" value="结束" style="rounded=1;whiteSpace=wrap;html=1;fontSize=12;glass=0;strokeWidth=1;shadow=0;" vertex="1" parent="WIyWlLk6GJQsqaUBKTNV-1">
          <mxGeometry x="3700" y="2440" width="120" height="40" as="geometry" />
        </mxCell>
        <mxCell id="cavRAeg5umnz87ZM6FMu-293" style="edgeStyle=orthogonalEdgeStyle;rounded=0;orthogonalLoop=1;jettySize=auto;html=1;exitX=0.5;exitY=1;exitDx=0;exitDy=0;entryX=0.5;entryY=0;entryDx=0;entryDy=0;" edge="1" parent="WIyWlLk6GJQsqaUBKTNV-1" source="cavRAeg5umnz87ZM6FMu-289" target="cavRAeg5umnz87ZM6FMu-292">
          <mxGeometry relative="1" as="geometry" />
        </mxCell>
        <mxCell id="cavRAeg5umnz87ZM6FMu-289" value="更新用户信息" style="rounded=1;whiteSpace=wrap;html=1;fontSize=12;glass=0;strokeWidth=1;shadow=0;" vertex="1" parent="WIyWlLk6GJQsqaUBKTNV-1">
          <mxGeometry x="3490" y="2590" width="120" height="40" as="geometry" />
        </mxCell>
        <mxCell id="cavRAeg5umnz87ZM6FMu-292" value="保存用户参与裂变活动的信息" style="rounded=1;whiteSpace=wrap;html=1;fontSize=12;glass=0;strokeWidth=1;shadow=0;" vertex="1" parent="WIyWlLk6GJQsqaUBKTNV-1">
          <mxGeometry x="3490" y="2710" width="120" height="40" as="geometry" />
        </mxCell>
      </root>
    </mxGraphModel>
  </diagram>
</mxfile>
